<svg xmlns="http://www.w3.org/2000/svg" xmlns:xlink="http://www.w3.org/1999/xlink" width="166.409" height="52.141" viewBox="0 0 166.409 52.141">
  <defs>
    <clipPath id="clip-path">
      <rect id="Rectangle_67" data-name="Rectangle 67" width="166.409" height="52.141" transform="translate(726 818)" fill="#fff"/>
    </clipPath>
  </defs>
  <g id="airbnb" transform="translate(-726 -818)" clip-path="url(#clip-path)">
    <path id="Path_634" data-name="Path 634" d="M813.7,831.1a3.379,3.379,0,1,1-3.379-3.393A3.378,3.378,0,0,1,813.7,831.1Zm-13.932,6.837v.835a6.486,6.486,0,0,0-5.043-2.088,10.338,10.338,0,0,0,0,20.669,6.307,6.307,0,0,0,5.043-2.14v.887a.712.712,0,0,0,.728.731h4.211V837.207H800.5A.746.746,0,0,0,799.769,837.938Zm0,12.579a5.161,5.161,0,0,1-4.211,2.14c-3.327,0-5.874-2.088-5.874-5.637s2.547-5.637,5.874-5.637a5.3,5.3,0,0,1,4.211,2.14Zm8.058-13.31h4.991v19.625h-4.991Zm74.549-.522a6.486,6.486,0,0,0-5.043,2.088V827.76h-4.991v29.072h4.211a.745.745,0,0,0,.728-.731v-.887a6.43,6.43,0,0,0,5.043,2.14,10.338,10.338,0,0,0,.052-20.669Zm-.832,15.919a5.084,5.084,0,0,1-4.211-2.14v-6.993a5.634,5.634,0,0,1,4.211-2.14c3.327,0,5.874,2.087,5.874,5.636S884.871,852.6,881.544,852.6Zm-11.8-7.411v11.691h-4.991V845.767c0-3.236-1.04-4.541-3.847-4.541a5.574,5.574,0,0,0-4.055,1.931v13.675h-4.99V837.207h3.951a.745.745,0,0,1,.727.731v.835a7.146,7.146,0,0,1,5.3-2.088,8.078,8.078,0,0,1,5.459,1.879C869.067,840.026,869.743,841.905,869.743,845.193Zm-30-8.508a6.486,6.486,0,0,0-5.043,2.088V827.76h-4.991v29.072h4.211a.745.745,0,0,0,.728-.731v-.887a6.43,6.43,0,0,0,5.043,2.14,10.338,10.338,0,0,0,.052-20.669Zm-.832,15.919a5.084,5.084,0,0,1-4.211-2.14v-6.993a5.634,5.634,0,0,1,4.211-2.14c3.327,0,5.874,2.087,5.874,5.636S842.242,852.6,838.915,852.6ZM825.4,836.685a7.932,7.932,0,0,1,2.288.261v4.646s-4.159-1.41-6.758,1.565v13.727h-4.991V837.207h4.211a.746.746,0,0,1,.728.731v.835A6.815,6.815,0,0,1,825.4,836.685Zm-51.83,18.373c-.26-.627-.52-1.3-.78-1.879-.416-.94-.832-1.827-1.2-2.662l-.052-.053c-3.587-7.829-7.434-15.762-11.489-23.591l-.156-.313c-.416-.783-.831-1.618-1.247-2.453a14.981,14.981,0,0,0-1.872-2.871,8.383,8.383,0,0,0-6.6-3.236,8.707,8.707,0,0,0-6.654,3.132,17.992,17.992,0,0,0-1.872,2.87c-.416.835-.832,1.67-1.248,2.453l-.156.314c-4,7.829-7.9,15.762-11.489,23.591l-.052.1c-.364.836-.779,1.723-1.2,2.662q-.39.861-.78,1.879a11.764,11.764,0,0,0-.624,5.637,11.083,11.083,0,0,0,6.758,8.664,10.629,10.629,0,0,0,4.211.835,11.831,11.831,0,0,0,1.352-.1,13.719,13.719,0,0,0,5.2-1.774,26.371,26.371,0,0,0,6.446-5.429,27.343,27.343,0,0,0,6.446,5.429,13.714,13.714,0,0,0,5.2,1.774,11.83,11.83,0,0,0,1.351.1,10.444,10.444,0,0,0,4.211-.835,11.063,11.063,0,0,0,6.759-8.664A9.892,9.892,0,0,0,773.568,855.058Zm-23.446,2.714c-2.807-3.55-4.627-6.89-5.251-9.708a8.452,8.452,0,0,1-.156-3.184,5.073,5.073,0,0,1,.832-2.192,5.51,5.51,0,0,1,4.575-2.3,5.317,5.317,0,0,1,4.575,2.3,5.073,5.073,0,0,1,.831,2.192,8.411,8.411,0,0,1-.156,3.184C754.749,850.83,752.929,854.17,750.122,857.772Zm20.742,2.453a7.748,7.748,0,0,1-4.73,6.106,7.839,7.839,0,0,1-3.951.522,10.18,10.18,0,0,1-3.951-1.357,24.3,24.3,0,0,1-5.927-5.063c3.431-4.227,5.511-8.09,6.291-11.534a13.132,13.132,0,0,0,.26-4.437,8.486,8.486,0,0,0-1.4-3.549,8.749,8.749,0,0,0-7.33-3.706,8.883,8.883,0,0,0-7.33,3.706,8.486,8.486,0,0,0-1.4,3.549,10.878,10.878,0,0,0,.26,4.437c.78,3.444,2.911,7.359,6.29,11.587a23.354,23.354,0,0,1-5.926,5.062,10.185,10.185,0,0,1-3.951,1.357,8.289,8.289,0,0,1-3.951-.521,7.753,7.753,0,0,1-4.731-6.107,8.67,8.67,0,0,1,.468-4.071c.156-.522.416-1.044.676-1.67.364-.836.78-1.723,1.2-2.61l.052-.1c3.587-7.777,7.434-15.711,11.437-23.435l.156-.314c.415-.783.831-1.618,1.247-2.4a11.452,11.452,0,0,1,1.456-2.3,5.444,5.444,0,0,1,8.318,0,11.454,11.454,0,0,1,1.455,2.3c.416.783.832,1.618,1.248,2.4l.156.314c3.951,7.776,7.8,15.71,11.385,23.487v.052c.416.835.78,1.774,1.2,2.61.26.626.52,1.148.676,1.67A8.863,8.863,0,0,1,770.864,860.225Z" fill="#ff5a5f"/>
  </g>
</svg>
