<svg xmlns="http://www.w3.org/2000/svg" xmlns:xlink="http://www.w3.org/1999/xlink" width="141.547" height="42.605" viewBox="0 0 141.547 42.605">
  <defs>
    <clipPath id="clip-path">
      <rect id="Rectangle_69" data-name="Rectangle 69" width="141.547" height="42.605" transform="translate(1178 835)" fill="#fff"/>
    </clipPath>
  </defs>
  <g id="amazon" transform="translate(-1178 -835)" clip-path="url(#clip-path)">
    <path id="Path_641" data-name="Path 641" d="M1265.81,868.319c-8.22,6.056-20.15,9.286-30.41,9.286a55.064,55.064,0,0,1-37.15-14.16c-.77-.7-.08-1.644.84-1.1a74.847,74.847,0,0,0,37.17,9.847,74,74,0,0,0,28.36-5.791C1266.01,865.808,1267.17,867.309,1265.81,868.319Z" fill="#f90" fill-rule="evenodd"/>
    <path id="Path_642" data-name="Path 642" d="M1269.23,864.411c-1.05-1.342-6.95-.634-9.6-.32-.8.1-.93-.6-.2-1.108,4.7-3.3,12.41-2.351,13.31-1.243s-.23,8.837-4.65,12.524c-.68.566-1.32.264-1.02-.486C1268.06,871.3,1270.29,865.759,1269.23,864.411Z" fill="#f90" fill-rule="evenodd"/>
    <path id="Path_643" data-name="Path 643" d="M1259.82,839.653V836.44a.792.792,0,0,1,.81-.812h14.4a.8.8,0,0,1,.83.812v2.751a4.436,4.436,0,0,1-1.08,2.019l-7.46,10.64a15.912,15.912,0,0,1,8.21,1.76,1.446,1.446,0,0,1,.76,1.25v3.428a.769.769,0,0,1-1.06.732,16.6,16.6,0,0,0-15.21.025c-.5.27-1.02-.271-1.02-.739V855.05a3.83,3.83,0,0,1,.53-2.209l8.64-12.382h-7.52A.8.8,0,0,1,1259.82,839.653Z" fill-rule="evenodd"/>
    <path id="Path_644" data-name="Path 644" d="M1207.29,859.7h-4.38a.824.824,0,0,1-.78-.745V836.5a.817.817,0,0,1,.84-.807h4.09a.824.824,0,0,1,.79.751v2.936h.08a5.788,5.788,0,0,1,5.77-4.161c2.74,0,4.45,1.324,5.69,4.161a6.471,6.471,0,0,1,11.12-1.7c1.38,1.889,1.1,4.634,1.1,7.04l-.01,14.173a.822.822,0,0,1-.84.813h-4.37a.832.832,0,0,1-.79-.813v-11.9a27.986,27.986,0,0,0-.13-4.209,2.272,2.272,0,0,0-2.57-1.933,2.912,2.912,0,0,0-2.62,1.84,13.574,13.574,0,0,0-.41,4.3v11.9a.822.822,0,0,1-.84.813h-4.38a.823.823,0,0,1-.78-.813l-.01-11.9c0-2.5.41-6.191-2.7-6.191-3.15,0-3.02,3.594-3.02,6.191v11.9a.831.831,0,0,1-.85.813" fill-rule="evenodd"/>
    <path id="Path_645" data-name="Path 645" d="M1288.26,835.215c6.5,0,10.02,5.576,10.02,12.666,0,6.849-3.89,12.284-10.02,12.284-6.38,0-9.86-5.576-9.86-12.524C1278.4,840.65,1281.92,835.215,1288.26,835.215Zm.04,4.585c-3.23,0-3.44,4.394-3.44,7.133s-.04,8.6,3.4,8.6c3.39,0,3.55-4.727,3.55-7.607a20.844,20.844,0,0,0-.65-5.957A2.735,2.735,0,0,0,1288.3,839.8Z" fill-rule="evenodd"/>
    <path id="Path_646" data-name="Path 646" d="M1306.71,859.7h-4.37a.831.831,0,0,1-.78-.813l-.01-22.462a.829.829,0,0,1,.84-.733h4.06a.844.844,0,0,1,.79.628v3.434h.08c1.22-3.071,2.94-4.536,5.97-4.536a5.747,5.747,0,0,1,5.11,2.647c1.15,1.8,1.15,4.818,1.15,6.991v14.136a.849.849,0,0,1-.85.708h-4.39a.84.84,0,0,1-.78-.708v-12.2c0-2.455.29-6.049-2.74-6.049a2.87,2.87,0,0,0-2.53,1.8,9.872,9.872,0,0,0-.7,4.252v12.093a.838.838,0,0,1-.85.813" fill-rule="evenodd"/>
    <path id="Path_647" data-name="Path 647" d="M1248.34,848.97a8.574,8.574,0,0,1-.82,4.64,3.57,3.57,0,0,1-3.03,1.988c-1.68,0-2.67-1.28-2.67-3.169,0-3.73,3.35-4.407,6.52-4.407Zm4.42,10.665a.923.923,0,0,1-1.04.1,10.629,10.629,0,0,1-2.51-2.917c-2.41,2.449-4.11,3.181-7.22,3.181-3.69,0-6.56-2.27-6.56-6.818a7.424,7.424,0,0,1,4.67-7.152c2.38-1.046,5.7-1.23,8.24-1.52v-.566a5.543,5.543,0,0,0-.54-3.169,2.916,2.916,0,0,0-2.46-1.139,3.322,3.322,0,0,0-3.51,2.628.928.928,0,0,1-.77.8l-4.24-.455a.777.777,0,0,1-.66-.917c.98-5.145,5.64-6.7,9.8-6.7,2.13,0,4.92.566,6.6,2.179,2.13,1.987,1.93,4.64,1.93,7.526v6.819a5.987,5.987,0,0,0,1.65,4.056.822.822,0,0,1-.02,1.163c-.89.744-2.48,2.129-3.36,2.905v-.013" fill-rule="evenodd"/>
    <path id="Path_648" data-name="Path 648" d="M1190.91,848.97a8.574,8.574,0,0,1-.82,4.64,3.557,3.557,0,0,1-3.03,1.988c-1.68,0-2.66-1.28-2.66-3.169,0-3.73,3.34-4.407,6.51-4.407Zm4.42,10.665a.923.923,0,0,1-1.04.1,10.8,10.8,0,0,1-2.51-2.917c-2.41,2.449-4.11,3.181-7.22,3.181-3.69,0-6.56-2.27-6.56-6.818a7.438,7.438,0,0,1,4.67-7.152c2.38-1.046,5.7-1.23,8.24-1.52v-.566a5.622,5.622,0,0,0-.53-3.169,2.941,2.941,0,0,0-2.46-1.139,3.332,3.332,0,0,0-3.52,2.628.929.929,0,0,1-.76.8l-4.25-.455a.777.777,0,0,1-.66-.917c.98-5.145,5.63-6.7,9.8-6.7,2.13,0,4.92.566,6.6,2.179,2.13,1.987,1.93,4.64,1.93,7.526v6.819a5.987,5.987,0,0,0,1.65,4.056.831.831,0,0,1-.01,1.163c-.9.744-2.49,2.129-3.36,2.905l-.01-.013" fill-rule="evenodd"/>
  </g>
</svg>
