<svg xmlns="http://www.w3.org/2000/svg" width="66.3" height="66.3" viewBox="0 0 66.3 66.3">
  <g id="analytics" transform="translate(-1070.85 -1457.85)">
    <path id="Path_670" data-name="Path 670" d="M1098.17,1509.96h-11.68a2.324,2.324,0,0,1-2.31-2.31v-15.79a5.847,5.847,0,0,1,5.82-5.83h8.17a2.335,2.335,0,0,1,2.32,2.32v19.27A2.339,2.339,0,0,1,1098.17,1509.96Zm-9.37-4.62h7.06v-14.65H1090a1.2,1.2,0,0,0-1.2,1.2Z" fill="#00da71"/>
    <path id="Path_671" data-name="Path 671" d="M1109.83,1509.96h-11.69a2.33,2.33,0,0,1-2.31-2.31v-29.79a5.841,5.841,0,0,1,5.83-5.82h4.68a5.841,5.841,0,0,1,5.83,5.82v29.79A2.357,2.357,0,0,1,1109.83,1509.96Zm-9.35-4.62h7.06v-27.48a1.2,1.2,0,0,0-1.2-1.2h-4.68a1.212,1.212,0,0,0-1.21,1.2v27.48Z" fill="#00da71"/>
    <path id="Path_672" data-name="Path 672" d="M1121.52,1509.96h-11.69a2.33,2.33,0,0,1-2.31-2.31v-14.03a2.33,2.33,0,0,1,2.31-2.31H1118a5.84,5.84,0,0,1,5.83,5.82v10.52A2.311,2.311,0,0,1,1121.52,1509.96Zm-9.38-4.62h7.06v-8.21a1.2,1.2,0,0,0-1.2-1.2h-5.86Z" fill="#00da71"/>
    <path id="Path_673" data-name="Path 673" d="M1113.25,1524.15h-18.5c-16.74,0-23.9-7.16-23.9-23.9v-18.5c0-16.74,7.16-23.9,23.9-23.9h18.5c16.74,0,23.9,7.16,23.9,23.9v18.5C1137.15,1516.99,1129.99,1524.15,1113.25,1524.15Zm-18.5-61.67c-14.21,0-19.27,5.06-19.27,19.27v18.5c0,14.21,5.06,19.27,19.27,19.27h18.5c14.21,0,19.27-5.06,19.27-19.27v-18.5c0-14.21-5.06-19.27-19.27-19.27Z" fill="#00da71"/>
  </g>
</svg>
