<svg xmlns="http://www.w3.org/2000/svg" width="68.198" height="66.325" viewBox="0 0 68.198 66.325">
  <g id="boxsearch" transform="translate(-730.022 -1127.825)">
    <path id="Path_655" data-name="Path 655" d="M762,1165.01a2.261,2.261,0,0,1-1.172-.31L733.6,1148.94a2.318,2.318,0,1,1,2.343-4L762,1160.01l25.9-14.98a2.322,2.322,0,1,1,2.343,4.01L763.2,1164.7A2.981,2.981,0,0,1,762,1165.01Z" fill="#2639ed"/>
    <path id="Path_656" data-name="Path 656" d="M762,1192.94a2.33,2.33,0,0,1-2.312-2.31v-27.97a2.312,2.312,0,0,1,4.624,0v27.97A2.33,2.33,0,0,1,762,1192.94Z" fill="#2639ed"/>
    <path id="Path_657" data-name="Path 657" d="M762,1194.15a15.694,15.694,0,0,1-7.524-1.79l-16.465-9.13a16.805,16.805,0,0,1-7.986-13.53v-17.46a16.864,16.864,0,0,1,7.986-13.53l16.465-9.13a16.938,16.938,0,0,1,15.016,0l16.465,9.13a16.806,16.806,0,0,1,7.986,13.53v11.29a2.313,2.313,0,0,1-4.625,0v-11.29a12.323,12.323,0,0,0-5.581-9.46l-16.465-9.13a12.323,12.323,0,0,0-10.514,0l-16.465,9.13a12.286,12.286,0,0,0-5.581,9.46v17.46a12.323,12.323,0,0,0,5.581,9.46l16.465,9.13a12.767,12.767,0,0,0,10.514,0,2.312,2.312,0,1,1,2.251,4.04A15.364,15.364,0,0,1,762,1194.15Z" fill="#2639ed"/>
    <path id="Path_658" data-name="Path 658" d="M784.2,1192.3a12.18,12.18,0,1,1,12.179-12.18A12.187,12.187,0,0,1,784.2,1192.3Zm0-19.74a7.555,7.555,0,1,0,7.554,7.56A7.567,7.567,0,0,0,784.2,1172.56Z" fill="#2639ed"/>
    <path id="Path_659" data-name="Path 659" d="M795.915,1194.15a2.3,2.3,0,0,1-1.634-.68l-3.083-3.09a2.308,2.308,0,1,1,3.268-3.26l3.083,3.08a2.329,2.329,0,0,1,0,3.27A2.3,2.3,0,0,1,795.915,1194.15Z" fill="#2639ed"/>
  </g>
</svg>
