<svg xmlns="http://www.w3.org/2000/svg" width="66.292" height="66.3" viewBox="0 0 66.292 66.3">
  <g id="code" transform="translate(-728.854 -1536.85)">
    <path id="Path_677" data-name="Path 677" d="M752.753,1587.73a2.284,2.284,0,0,1-1.018-.25,15.448,15.448,0,0,1-5.889-5.21,5.443,5.443,0,0,1,0-6.07,15.128,15.128,0,0,1,5.889-5.18,2.322,2.322,0,1,1,2.066,4.16,10.615,10.615,0,0,0-4.1,3.64.882.882,0,0,0,0,.95,10.537,10.537,0,0,0,4.1,3.64,2.36,2.36,0,0,1,1.049,3.12A2.471,2.471,0,0,1,752.753,1587.73Z" fill="#ff007a"/>
    <path id="Path_678" data-name="Path 678" d="M771.9,1587.73a2.307,2.307,0,0,1-1.017-4.38,10.6,10.6,0,0,0,4.1-3.64.882.882,0,0,0,0-.95,10.525,10.525,0,0,0-4.1-3.64,2.322,2.322,0,1,1,2.065-4.16,15.444,15.444,0,0,1,5.89,5.21,5.443,5.443,0,0,1,0,6.07,15.125,15.125,0,0,1-5.89,5.18A2,2,0,0,1,771.9,1587.73Z" fill="#ff007a"/>
    <path id="Path_679" data-name="Path 679" d="M771.25,1603.15h-18.5c-16.742,0-23.9-7.16-23.9-23.9v-18.5c0-16.74,7.154-23.9,23.9-23.9h18.5c16.743,0,23.9,7.16,23.9,23.9v18.5C795.146,1595.99,787.993,1603.15,771.25,1603.15Zm-18.5-61.67c-14.214,0-19.271,5.06-19.271,19.27v18.5c0,14.21,5.057,19.27,19.271,19.27h18.5c14.214,0,19.271-5.06,19.271-19.27v-18.5c0-14.21-5.057-19.27-19.271-19.27Z" fill="#ff007a"/>
    <path id="Path_680" data-name="Path 680" d="M731.877,1560.01a2.315,2.315,0,0,1,0-4.63l59.262-.03a2.315,2.315,0,0,1,0,4.63Z" fill="#ff007a"/>
  </g>
</svg>
