<svg xmlns="http://www.w3.org/2000/svg" width="175" height="154" viewBox="0 0 175 154">
  <g id="element_6" data-name="element 6" transform="translate(-1179 -3237)">
    <circle id="Ellipse_438" data-name="Ellipse 438" cx="3.5" cy="3.5" r="3.5" transform="translate(1179 3237)" fill="#dfeeff"/>
    <circle id="Ellipse_439" data-name="Ellipse 439" cx="3.5" cy="3.5" r="3.5" transform="translate(1179 3258)" fill="#dfeeff"/>
    <circle id="Ellipse_440" data-name="Ellipse 440" cx="3.5" cy="3.5" r="3.5" transform="translate(1179 3279)" fill="#dfeeff"/>
    <circle id="Ellipse_441" data-name="Ellipse 441" cx="3.5" cy="3.5" r="3.5" transform="translate(1179 3300)" fill="#dfeeff"/>
    <circle id="Ellipse_442" data-name="Ellipse 442" cx="3.5" cy="3.5" r="3.5" transform="translate(1179 3321)" fill="#dfeeff"/>
    <circle id="Ellipse_443" data-name="Ellipse 443" cx="3.5" cy="3.5" r="3.5" transform="translate(1179 3342)" fill="#dfeeff"/>
    <circle id="Ellipse_444" data-name="Ellipse 444" cx="3.5" cy="3.5" r="3.5" transform="translate(1179 3363)" fill="#dfeeff"/>
    <circle id="Ellipse_445" data-name="Ellipse 445" cx="3.5" cy="3.5" r="3.5" transform="translate(1179 3384)" fill="#dfeeff"/>
    <circle id="Ellipse_446" data-name="Ellipse 446" cx="3.5" cy="3.5" r="3.5" transform="translate(1200 3237)" fill="#dfeeff"/>
    <circle id="Ellipse_447" data-name="Ellipse 447" cx="3.5" cy="3.5" r="3.5" transform="translate(1200 3258)" fill="#dfeeff"/>
    <circle id="Ellipse_448" data-name="Ellipse 448" cx="3.5" cy="3.5" r="3.5" transform="translate(1200 3279)" fill="#dfeeff"/>
    <circle id="Ellipse_449" data-name="Ellipse 449" cx="3.5" cy="3.5" r="3.5" transform="translate(1200 3300)" fill="#dfeeff"/>
    <circle id="Ellipse_450" data-name="Ellipse 450" cx="3.5" cy="3.5" r="3.5" transform="translate(1200 3321)" fill="#dfeeff"/>
    <circle id="Ellipse_451" data-name="Ellipse 451" cx="3.5" cy="3.5" r="3.5" transform="translate(1200 3342)" fill="#dfeeff"/>
    <circle id="Ellipse_452" data-name="Ellipse 452" cx="3.5" cy="3.5" r="3.5" transform="translate(1200 3363)" fill="#dfeeff"/>
    <circle id="Ellipse_453" data-name="Ellipse 453" cx="3.5" cy="3.5" r="3.5" transform="translate(1200 3384)" fill="#dfeeff"/>
    <circle id="Ellipse_454" data-name="Ellipse 454" cx="3.5" cy="3.5" r="3.5" transform="translate(1221 3237)" fill="#dfeeff"/>
    <circle id="Ellipse_455" data-name="Ellipse 455" cx="3.5" cy="3.5" r="3.5" transform="translate(1221 3258)" fill="#dfeeff"/>
    <circle id="Ellipse_456" data-name="Ellipse 456" cx="3.5" cy="3.5" r="3.5" transform="translate(1221 3279)" fill="#dfeeff"/>
    <circle id="Ellipse_457" data-name="Ellipse 457" cx="3.5" cy="3.5" r="3.5" transform="translate(1221 3300)" fill="#dfeeff"/>
    <circle id="Ellipse_458" data-name="Ellipse 458" cx="3.5" cy="3.5" r="3.5" transform="translate(1221 3321)" fill="#dfeeff"/>
    <circle id="Ellipse_459" data-name="Ellipse 459" cx="3.5" cy="3.5" r="3.5" transform="translate(1221 3342)" fill="#dfeeff"/>
    <circle id="Ellipse_460" data-name="Ellipse 460" cx="3.5" cy="3.5" r="3.5" transform="translate(1221 3363)" fill="#dfeeff"/>
    <circle id="Ellipse_461" data-name="Ellipse 461" cx="3.5" cy="3.5" r="3.5" transform="translate(1221 3384)" fill="#dfeeff"/>
    <circle id="Ellipse_462" data-name="Ellipse 462" cx="3.5" cy="3.5" r="3.5" transform="translate(1242 3237)" fill="#dfeeff"/>
    <circle id="Ellipse_463" data-name="Ellipse 463" cx="3.5" cy="3.5" r="3.5" transform="translate(1242 3258)" fill="#dfeeff"/>
    <circle id="Ellipse_464" data-name="Ellipse 464" cx="3.5" cy="3.5" r="3.5" transform="translate(1242 3279)" fill="#dfeeff"/>
    <circle id="Ellipse_465" data-name="Ellipse 465" cx="3.5" cy="3.5" r="3.5" transform="translate(1242 3300)" fill="#dfeeff"/>
    <circle id="Ellipse_466" data-name="Ellipse 466" cx="3.5" cy="3.5" r="3.5" transform="translate(1242 3321)" fill="#dfeeff"/>
    <circle id="Ellipse_467" data-name="Ellipse 467" cx="3.5" cy="3.5" r="3.5" transform="translate(1242 3342)" fill="#dfeeff"/>
    <circle id="Ellipse_468" data-name="Ellipse 468" cx="3.5" cy="3.5" r="3.5" transform="translate(1242 3363)" fill="#dfeeff"/>
    <circle id="Ellipse_469" data-name="Ellipse 469" cx="3.5" cy="3.5" r="3.5" transform="translate(1242 3384)" fill="#dfeeff"/>
    <circle id="Ellipse_470" data-name="Ellipse 470" cx="3.5" cy="3.5" r="3.5" transform="translate(1263 3237)" fill="#dfeeff"/>
    <circle id="Ellipse_471" data-name="Ellipse 471" cx="3.5" cy="3.5" r="3.5" transform="translate(1263 3258)" fill="#dfeeff"/>
    <circle id="Ellipse_472" data-name="Ellipse 472" cx="3.5" cy="3.5" r="3.5" transform="translate(1263 3279)" fill="#dfeeff"/>
    <circle id="Ellipse_473" data-name="Ellipse 473" cx="3.5" cy="3.5" r="3.5" transform="translate(1263 3300)" fill="#dfeeff"/>
    <circle id="Ellipse_474" data-name="Ellipse 474" cx="3.5" cy="3.5" r="3.5" transform="translate(1263 3321)" fill="#dfeeff"/>
    <circle id="Ellipse_475" data-name="Ellipse 475" cx="3.5" cy="3.5" r="3.5" transform="translate(1263 3342)" fill="#dfeeff"/>
    <circle id="Ellipse_476" data-name="Ellipse 476" cx="3.5" cy="3.5" r="3.5" transform="translate(1263 3363)" fill="#dfeeff"/>
    <circle id="Ellipse_477" data-name="Ellipse 477" cx="3.5" cy="3.5" r="3.5" transform="translate(1263 3384)" fill="#dfeeff"/>
    <circle id="Ellipse_478" data-name="Ellipse 478" cx="3.5" cy="3.5" r="3.5" transform="translate(1284 3237)" fill="#dfeeff"/>
    <circle id="Ellipse_479" data-name="Ellipse 479" cx="3.5" cy="3.5" r="3.5" transform="translate(1284 3258)" fill="#dfeeff"/>
    <circle id="Ellipse_480" data-name="Ellipse 480" cx="3.5" cy="3.5" r="3.5" transform="translate(1284 3279)" fill="#dfeeff"/>
    <circle id="Ellipse_481" data-name="Ellipse 481" cx="3.5" cy="3.5" r="3.5" transform="translate(1284 3300)" fill="#dfeeff"/>
    <circle id="Ellipse_482" data-name="Ellipse 482" cx="3.5" cy="3.5" r="3.5" transform="translate(1284 3321)" fill="#dfeeff"/>
    <circle id="Ellipse_483" data-name="Ellipse 483" cx="3.5" cy="3.5" r="3.5" transform="translate(1284 3342)" fill="#dfeeff"/>
    <circle id="Ellipse_484" data-name="Ellipse 484" cx="3.5" cy="3.5" r="3.5" transform="translate(1284 3363)" fill="#dfeeff"/>
    <circle id="Ellipse_485" data-name="Ellipse 485" cx="3.5" cy="3.5" r="3.5" transform="translate(1284 3384)" fill="#dfeeff"/>
    <circle id="Ellipse_486" data-name="Ellipse 486" cx="3.5" cy="3.5" r="3.5" transform="translate(1305 3237)" fill="#dfeeff"/>
    <circle id="Ellipse_487" data-name="Ellipse 487" cx="3.5" cy="3.5" r="3.5" transform="translate(1305 3258)" fill="#dfeeff"/>
    <circle id="Ellipse_488" data-name="Ellipse 488" cx="3.5" cy="3.5" r="3.5" transform="translate(1305 3279)" fill="#dfeeff"/>
    <circle id="Ellipse_489" data-name="Ellipse 489" cx="3.5" cy="3.5" r="3.5" transform="translate(1305 3300)" fill="#dfeeff"/>
    <circle id="Ellipse_490" data-name="Ellipse 490" cx="3.5" cy="3.5" r="3.5" transform="translate(1305 3321)" fill="#dfeeff"/>
    <circle id="Ellipse_491" data-name="Ellipse 491" cx="3.5" cy="3.5" r="3.5" transform="translate(1305 3342)" fill="#dfeeff"/>
    <circle id="Ellipse_492" data-name="Ellipse 492" cx="3.5" cy="3.5" r="3.5" transform="translate(1305 3363)" fill="#dfeeff"/>
    <circle id="Ellipse_493" data-name="Ellipse 493" cx="3.5" cy="3.5" r="3.5" transform="translate(1305 3384)" fill="#dfeeff"/>
    <circle id="Ellipse_494" data-name="Ellipse 494" cx="3.5" cy="3.5" r="3.5" transform="translate(1326 3237)" fill="#dfeeff"/>
    <circle id="Ellipse_495" data-name="Ellipse 495" cx="3.5" cy="3.5" r="3.5" transform="translate(1326 3258)" fill="#dfeeff"/>
    <circle id="Ellipse_496" data-name="Ellipse 496" cx="3.5" cy="3.5" r="3.5" transform="translate(1326 3279)" fill="#dfeeff"/>
    <circle id="Ellipse_497" data-name="Ellipse 497" cx="3.5" cy="3.5" r="3.5" transform="translate(1326 3300)" fill="#dfeeff"/>
    <circle id="Ellipse_498" data-name="Ellipse 498" cx="3.5" cy="3.5" r="3.5" transform="translate(1326 3321)" fill="#dfeeff"/>
    <circle id="Ellipse_499" data-name="Ellipse 499" cx="3.5" cy="3.5" r="3.5" transform="translate(1326 3342)" fill="#dfeeff"/>
    <circle id="Ellipse_500" data-name="Ellipse 500" cx="3.5" cy="3.5" r="3.5" transform="translate(1326 3363)" fill="#dfeeff"/>
    <circle id="Ellipse_501" data-name="Ellipse 501" cx="3.5" cy="3.5" r="3.5" transform="translate(1326 3384)" fill="#dfeeff"/>
    <circle id="Ellipse_502" data-name="Ellipse 502" cx="3.5" cy="3.5" r="3.5" transform="translate(1347 3237)" fill="#dfeeff"/>
    <circle id="Ellipse_503" data-name="Ellipse 503" cx="3.5" cy="3.5" r="3.5" transform="translate(1347 3258)" fill="#dfeeff"/>
    <circle id="Ellipse_504" data-name="Ellipse 504" cx="3.5" cy="3.5" r="3.5" transform="translate(1347 3279)" fill="#dfeeff"/>
    <circle id="Ellipse_505" data-name="Ellipse 505" cx="3.5" cy="3.5" r="3.5" transform="translate(1347 3300)" fill="#dfeeff"/>
    <circle id="Ellipse_506" data-name="Ellipse 506" cx="3.5" cy="3.5" r="3.5" transform="translate(1347 3321)" fill="#dfeeff"/>
    <circle id="Ellipse_507" data-name="Ellipse 507" cx="3.5" cy="3.5" r="3.5" transform="translate(1347 3342)" fill="#dfeeff"/>
    <circle id="Ellipse_508" data-name="Ellipse 508" cx="3.5" cy="3.5" r="3.5" transform="translate(1347 3363)" fill="#dfeeff"/>
    <circle id="Ellipse_509" data-name="Ellipse 509" cx="3.5" cy="3.5" r="3.5" transform="translate(1347 3384)" fill="#dfeeff"/>
  </g>
</svg>
