<svg xmlns="http://www.w3.org/2000/svg" width="405" height="154" viewBox="0 0 405 154">
  <g id="element_3" data-name="element 3" transform="translate(-125 -1626)">
    <circle id="Ellipse_174" data-name="Ellipse 174" cx="3.5" cy="3.5" r="3.5" transform="translate(334 1626)" fill="#e7f0fc"/>
    <circle id="Ellipse_175" data-name="Ellipse 175" cx="3.5" cy="3.5" r="3.5" transform="translate(334 1647)" fill="#e7f0fc"/>
    <circle id="Ellipse_176" data-name="Ellipse 176" cx="3.5" cy="3.5" r="3.5" transform="translate(334 1668)" fill="#e7f0fc"/>
    <circle id="Ellipse_177" data-name="Ellipse 177" cx="3.5" cy="3.5" r="3.5" transform="translate(334 1689)" fill="#e7f0fc"/>
    <circle id="Ellipse_178" data-name="Ellipse 178" cx="3.5" cy="3.5" r="3.5" transform="translate(334 1710)" fill="#e7f0fc"/>
    <circle id="Ellipse_179" data-name="Ellipse 179" cx="3.5" cy="3.5" r="3.5" transform="translate(334 1731)" fill="#e7f0fc"/>
    <circle id="Ellipse_180" data-name="Ellipse 180" cx="3.5" cy="3.5" r="3.5" transform="translate(334 1752)" fill="#e7f0fc"/>
    <circle id="Ellipse_181" data-name="Ellipse 181" cx="3.5" cy="3.5" r="3.5" transform="translate(334 1773)" fill="#e7f0fc"/>
    <circle id="Ellipse_182" data-name="Ellipse 182" cx="3.5" cy="3.5" r="3.5" transform="translate(355 1626)" fill="#e7f0fc"/>
    <circle id="Ellipse_183" data-name="Ellipse 183" cx="3.5" cy="3.5" r="3.5" transform="translate(355 1647)" fill="#e7f0fc"/>
    <circle id="Ellipse_184" data-name="Ellipse 184" cx="3.5" cy="3.5" r="3.5" transform="translate(355 1668)" fill="#e7f0fc"/>
    <circle id="Ellipse_185" data-name="Ellipse 185" cx="3.5" cy="3.5" r="3.5" transform="translate(355 1689)" fill="#e7f0fc"/>
    <circle id="Ellipse_186" data-name="Ellipse 186" cx="3.5" cy="3.5" r="3.5" transform="translate(355 1710)" fill="#e7f0fc"/>
    <circle id="Ellipse_187" data-name="Ellipse 187" cx="3.5" cy="3.5" r="3.5" transform="translate(355 1731)" fill="#e7f0fc"/>
    <circle id="Ellipse_188" data-name="Ellipse 188" cx="3.5" cy="3.5" r="3.5" transform="translate(355 1752)" fill="#e7f0fc"/>
    <circle id="Ellipse_189" data-name="Ellipse 189" cx="3.5" cy="3.5" r="3.5" transform="translate(355 1773)" fill="#e7f0fc"/>
    <circle id="Ellipse_190" data-name="Ellipse 190" cx="3.5" cy="3.5" r="3.5" transform="translate(376 1626)" fill="#e7f0fc"/>
    <circle id="Ellipse_191" data-name="Ellipse 191" cx="3.5" cy="3.5" r="3.5" transform="translate(376 1647)" fill="#e7f0fc"/>
    <circle id="Ellipse_192" data-name="Ellipse 192" cx="3.5" cy="3.5" r="3.5" transform="translate(376 1668)" fill="#e7f0fc"/>
    <circle id="Ellipse_193" data-name="Ellipse 193" cx="3.5" cy="3.5" r="3.5" transform="translate(376 1689)" fill="#e7f0fc"/>
    <circle id="Ellipse_194" data-name="Ellipse 194" cx="3.5" cy="3.5" r="3.5" transform="translate(376 1710)" fill="#e7f0fc"/>
    <circle id="Ellipse_195" data-name="Ellipse 195" cx="3.5" cy="3.5" r="3.5" transform="translate(376 1731)" fill="#e7f0fc"/>
    <circle id="Ellipse_196" data-name="Ellipse 196" cx="3.5" cy="3.5" r="3.5" transform="translate(376 1752)" fill="#e7f0fc"/>
    <circle id="Ellipse_197" data-name="Ellipse 197" cx="3.5" cy="3.5" r="3.5" transform="translate(376 1773)" fill="#e7f0fc"/>
    <circle id="Ellipse_198" data-name="Ellipse 198" cx="3.5" cy="3.5" r="3.5" transform="translate(397 1626)" fill="#e7f0fc"/>
    <circle id="Ellipse_199" data-name="Ellipse 199" cx="3.5" cy="3.5" r="3.5" transform="translate(397 1647)" fill="#e7f0fc"/>
    <circle id="Ellipse_200" data-name="Ellipse 200" cx="3.5" cy="3.5" r="3.5" transform="translate(397 1668)" fill="#e7f0fc"/>
    <circle id="Ellipse_201" data-name="Ellipse 201" cx="3.5" cy="3.5" r="3.5" transform="translate(397 1689)" fill="#e7f0fc"/>
    <circle id="Ellipse_202" data-name="Ellipse 202" cx="3.5" cy="3.5" r="3.5" transform="translate(397 1710)" fill="#e7f0fc"/>
    <circle id="Ellipse_203" data-name="Ellipse 203" cx="3.5" cy="3.5" r="3.5" transform="translate(397 1731)" fill="#e7f0fc"/>
    <circle id="Ellipse_204" data-name="Ellipse 204" cx="3.5" cy="3.5" r="3.5" transform="translate(397 1752)" fill="#e7f0fc"/>
    <circle id="Ellipse_205" data-name="Ellipse 205" cx="3.5" cy="3.5" r="3.5" transform="translate(397 1773)" fill="#e7f0fc"/>
    <circle id="Ellipse_206" data-name="Ellipse 206" cx="3.5" cy="3.5" r="3.5" transform="translate(418 1626)" fill="#e7f0fc"/>
    <circle id="Ellipse_207" data-name="Ellipse 207" cx="3.5" cy="3.5" r="3.5" transform="translate(418 1647)" fill="#e7f0fc"/>
    <circle id="Ellipse_208" data-name="Ellipse 208" cx="3.5" cy="3.5" r="3.5" transform="translate(418 1668)" fill="#e7f0fc"/>
    <circle id="Ellipse_209" data-name="Ellipse 209" cx="3.5" cy="3.5" r="3.5" transform="translate(418 1689)" fill="#e7f0fc"/>
    <circle id="Ellipse_210" data-name="Ellipse 210" cx="3.5" cy="3.5" r="3.5" transform="translate(418 1710)" fill="#e7f0fc"/>
    <circle id="Ellipse_211" data-name="Ellipse 211" cx="3.5" cy="3.5" r="3.5" transform="translate(418 1731)" fill="#e7f0fc"/>
    <circle id="Ellipse_212" data-name="Ellipse 212" cx="3.5" cy="3.5" r="3.5" transform="translate(418 1752)" fill="#e7f0fc"/>
    <circle id="Ellipse_213" data-name="Ellipse 213" cx="3.5" cy="3.5" r="3.5" transform="translate(418 1773)" fill="#e7f0fc"/>
    <circle id="Ellipse_214" data-name="Ellipse 214" cx="3.5" cy="3.5" r="3.5" transform="translate(439 1626)" fill="#e7f0fc"/>
    <circle id="Ellipse_215" data-name="Ellipse 215" cx="3.5" cy="3.5" r="3.5" transform="translate(439 1647)" fill="#e7f0fc"/>
    <circle id="Ellipse_216" data-name="Ellipse 216" cx="3.5" cy="3.5" r="3.5" transform="translate(439 1668)" fill="#e7f0fc"/>
    <circle id="Ellipse_217" data-name="Ellipse 217" cx="3.5" cy="3.5" r="3.5" transform="translate(439 1689)" fill="#e7f0fc"/>
    <circle id="Ellipse_218" data-name="Ellipse 218" cx="3.5" cy="3.5" r="3.5" transform="translate(439 1710)" fill="#e7f0fc"/>
    <circle id="Ellipse_219" data-name="Ellipse 219" cx="3.5" cy="3.5" r="3.5" transform="translate(439 1731)" fill="#e7f0fc"/>
    <circle id="Ellipse_220" data-name="Ellipse 220" cx="3.5" cy="3.5" r="3.5" transform="translate(439 1752)" fill="#e7f0fc"/>
    <circle id="Ellipse_221" data-name="Ellipse 221" cx="3.5" cy="3.5" r="3.5" transform="translate(439 1773)" fill="#e7f0fc"/>
    <circle id="Ellipse_222" data-name="Ellipse 222" cx="3.5" cy="3.5" r="3.5" transform="translate(460 1626)" fill="#e7f0fc"/>
    <circle id="Ellipse_223" data-name="Ellipse 223" cx="3.5" cy="3.5" r="3.5" transform="translate(460 1647)" fill="#e7f0fc"/>
    <circle id="Ellipse_224" data-name="Ellipse 224" cx="3.5" cy="3.5" r="3.5" transform="translate(460 1668)" fill="#e7f0fc"/>
    <circle id="Ellipse_225" data-name="Ellipse 225" cx="3.5" cy="3.5" r="3.5" transform="translate(460 1689)" fill="#e7f0fc"/>
    <circle id="Ellipse_226" data-name="Ellipse 226" cx="3.5" cy="3.5" r="3.5" transform="translate(460 1710)" fill="#e7f0fc"/>
    <circle id="Ellipse_227" data-name="Ellipse 227" cx="3.5" cy="3.5" r="3.5" transform="translate(460 1731)" fill="#e7f0fc"/>
    <circle id="Ellipse_228" data-name="Ellipse 228" cx="3.5" cy="3.5" r="3.5" transform="translate(460 1752)" fill="#e7f0fc"/>
    <circle id="Ellipse_229" data-name="Ellipse 229" cx="3.5" cy="3.5" r="3.5" transform="translate(460 1773)" fill="#e7f0fc"/>
    <circle id="Ellipse_230" data-name="Ellipse 230" cx="3.5" cy="3.5" r="3.5" transform="translate(481 1626)" fill="#e7f0fc"/>
    <circle id="Ellipse_231" data-name="Ellipse 231" cx="3.5" cy="3.5" r="3.5" transform="translate(481 1647)" fill="#e7f0fc"/>
    <circle id="Ellipse_232" data-name="Ellipse 232" cx="3.5" cy="3.5" r="3.5" transform="translate(481 1668)" fill="#e7f0fc"/>
    <circle id="Ellipse_233" data-name="Ellipse 233" cx="3.5" cy="3.5" r="3.5" transform="translate(481 1689)" fill="#e7f0fc"/>
    <circle id="Ellipse_234" data-name="Ellipse 234" cx="3.5" cy="3.5" r="3.5" transform="translate(481 1710)" fill="#e7f0fc"/>
    <circle id="Ellipse_235" data-name="Ellipse 235" cx="3.5" cy="3.5" r="3.5" transform="translate(481 1731)" fill="#e7f0fc"/>
    <circle id="Ellipse_236" data-name="Ellipse 236" cx="3.5" cy="3.5" r="3.5" transform="translate(481 1752)" fill="#e7f0fc"/>
    <circle id="Ellipse_237" data-name="Ellipse 237" cx="3.5" cy="3.5" r="3.5" transform="translate(481 1773)" fill="#e7f0fc"/>
    <circle id="Ellipse_238" data-name="Ellipse 238" cx="3.5" cy="3.5" r="3.5" transform="translate(502 1626)" fill="#e7f0fc"/>
    <circle id="Ellipse_239" data-name="Ellipse 239" cx="3.5" cy="3.5" r="3.5" transform="translate(502 1647)" fill="#e7f0fc"/>
    <circle id="Ellipse_240" data-name="Ellipse 240" cx="3.5" cy="3.5" r="3.5" transform="translate(502 1668)" fill="#e7f0fc"/>
    <circle id="Ellipse_241" data-name="Ellipse 241" cx="3.5" cy="3.5" r="3.5" transform="translate(502 1689)" fill="#e7f0fc"/>
    <circle id="Ellipse_242" data-name="Ellipse 242" cx="3.5" cy="3.5" r="3.5" transform="translate(502 1710)" fill="#e7f0fc"/>
    <circle id="Ellipse_243" data-name="Ellipse 243" cx="3.5" cy="3.5" r="3.5" transform="translate(502 1731)" fill="#e7f0fc"/>
    <circle id="Ellipse_244" data-name="Ellipse 244" cx="3.5" cy="3.5" r="3.5" transform="translate(502 1752)" fill="#e7f0fc"/>
    <circle id="Ellipse_245" data-name="Ellipse 245" cx="3.5" cy="3.5" r="3.5" transform="translate(502 1773)" fill="#e7f0fc"/>
    <circle id="Ellipse_246" data-name="Ellipse 246" cx="3.5" cy="3.5" r="3.5" transform="translate(523 1626)" fill="#e7f0fc"/>
    <circle id="Ellipse_247" data-name="Ellipse 247" cx="3.5" cy="3.5" r="3.5" transform="translate(523 1647)" fill="#e7f0fc"/>
    <circle id="Ellipse_248" data-name="Ellipse 248" cx="3.5" cy="3.5" r="3.5" transform="translate(523 1668)" fill="#e7f0fc"/>
    <circle id="Ellipse_249" data-name="Ellipse 249" cx="3.5" cy="3.5" r="3.5" transform="translate(523 1689)" fill="#e7f0fc"/>
    <circle id="Ellipse_250" data-name="Ellipse 250" cx="3.5" cy="3.5" r="3.5" transform="translate(523 1710)" fill="#e7f0fc"/>
    <circle id="Ellipse_251" data-name="Ellipse 251" cx="3.5" cy="3.5" r="3.5" transform="translate(523 1731)" fill="#e7f0fc"/>
    <circle id="Ellipse_252" data-name="Ellipse 252" cx="3.5" cy="3.5" r="3.5" transform="translate(523 1752)" fill="#e7f0fc"/>
    <circle id="Ellipse_253" data-name="Ellipse 253" cx="3.5" cy="3.5" r="3.5" transform="translate(523 1773)" fill="#e7f0fc"/>
    <circle id="Ellipse_254" data-name="Ellipse 254" cx="3.5" cy="3.5" r="3.5" transform="translate(125 1626)" fill="#e7f0fc"/>
    <circle id="Ellipse_255" data-name="Ellipse 255" cx="3.5" cy="3.5" r="3.5" transform="translate(125 1647)" fill="#e7f0fc"/>
    <circle id="Ellipse_256" data-name="Ellipse 256" cx="3.5" cy="3.5" r="3.5" transform="translate(125 1668)" fill="#e7f0fc"/>
    <circle id="Ellipse_257" data-name="Ellipse 257" cx="3.5" cy="3.5" r="3.5" transform="translate(125 1689)" fill="#e7f0fc"/>
    <circle id="Ellipse_258" data-name="Ellipse 258" cx="3.5" cy="3.5" r="3.5" transform="translate(125 1710)" fill="#e7f0fc"/>
    <circle id="Ellipse_259" data-name="Ellipse 259" cx="3.5" cy="3.5" r="3.5" transform="translate(125 1731)" fill="#e7f0fc"/>
    <circle id="Ellipse_260" data-name="Ellipse 260" cx="3.5" cy="3.5" r="3.5" transform="translate(125 1752)" fill="#e7f0fc"/>
    <circle id="Ellipse_261" data-name="Ellipse 261" cx="3.5" cy="3.5" r="3.5" transform="translate(125 1773)" fill="#e7f0fc"/>
    <circle id="Ellipse_262" data-name="Ellipse 262" cx="3.5" cy="3.5" r="3.5" transform="translate(146 1626)" fill="#e7f0fc"/>
    <circle id="Ellipse_263" data-name="Ellipse 263" cx="3.5" cy="3.5" r="3.5" transform="translate(146 1647)" fill="#e7f0fc"/>
    <circle id="Ellipse_264" data-name="Ellipse 264" cx="3.5" cy="3.5" r="3.5" transform="translate(146 1668)" fill="#e7f0fc"/>
    <circle id="Ellipse_265" data-name="Ellipse 265" cx="3.5" cy="3.5" r="3.5" transform="translate(146 1689)" fill="#e7f0fc"/>
    <circle id="Ellipse_266" data-name="Ellipse 266" cx="3.5" cy="3.5" r="3.5" transform="translate(146 1710)" fill="#e7f0fc"/>
    <circle id="Ellipse_267" data-name="Ellipse 267" cx="3.5" cy="3.5" r="3.5" transform="translate(146 1731)" fill="#e7f0fc"/>
    <circle id="Ellipse_268" data-name="Ellipse 268" cx="3.5" cy="3.5" r="3.5" transform="translate(146 1752)" fill="#e7f0fc"/>
    <circle id="Ellipse_269" data-name="Ellipse 269" cx="3.5" cy="3.5" r="3.5" transform="translate(146 1773)" fill="#e7f0fc"/>
    <circle id="Ellipse_270" data-name="Ellipse 270" cx="3.5" cy="3.5" r="3.5" transform="translate(167 1626)" fill="#e7f0fc"/>
    <circle id="Ellipse_271" data-name="Ellipse 271" cx="3.5" cy="3.5" r="3.5" transform="translate(167 1647)" fill="#e7f0fc"/>
    <circle id="Ellipse_272" data-name="Ellipse 272" cx="3.5" cy="3.5" r="3.5" transform="translate(167 1668)" fill="#e7f0fc"/>
    <circle id="Ellipse_273" data-name="Ellipse 273" cx="3.5" cy="3.5" r="3.5" transform="translate(167 1689)" fill="#e7f0fc"/>
    <circle id="Ellipse_274" data-name="Ellipse 274" cx="3.5" cy="3.5" r="3.5" transform="translate(167 1710)" fill="#e7f0fc"/>
    <circle id="Ellipse_275" data-name="Ellipse 275" cx="3.5" cy="3.5" r="3.5" transform="translate(167 1731)" fill="#e7f0fc"/>
    <circle id="Ellipse_276" data-name="Ellipse 276" cx="3.5" cy="3.5" r="3.5" transform="translate(167 1752)" fill="#e7f0fc"/>
    <circle id="Ellipse_277" data-name="Ellipse 277" cx="3.5" cy="3.5" r="3.5" transform="translate(167 1773)" fill="#e7f0fc"/>
    <circle id="Ellipse_278" data-name="Ellipse 278" cx="3.5" cy="3.5" r="3.5" transform="translate(188 1626)" fill="#e7f0fc"/>
    <circle id="Ellipse_279" data-name="Ellipse 279" cx="3.5" cy="3.5" r="3.5" transform="translate(188 1647)" fill="#e7f0fc"/>
    <circle id="Ellipse_280" data-name="Ellipse 280" cx="3.5" cy="3.5" r="3.5" transform="translate(188 1668)" fill="#e7f0fc"/>
    <circle id="Ellipse_281" data-name="Ellipse 281" cx="3.5" cy="3.5" r="3.5" transform="translate(188 1689)" fill="#e7f0fc"/>
    <circle id="Ellipse_282" data-name="Ellipse 282" cx="3.5" cy="3.5" r="3.5" transform="translate(188 1710)" fill="#e7f0fc"/>
    <circle id="Ellipse_283" data-name="Ellipse 283" cx="3.5" cy="3.5" r="3.5" transform="translate(188 1731)" fill="#e7f0fc"/>
    <circle id="Ellipse_284" data-name="Ellipse 284" cx="3.5" cy="3.5" r="3.5" transform="translate(188 1752)" fill="#e7f0fc"/>
    <circle id="Ellipse_285" data-name="Ellipse 285" cx="3.5" cy="3.5" r="3.5" transform="translate(188 1773)" fill="#e7f0fc"/>
    <circle id="Ellipse_286" data-name="Ellipse 286" cx="3.5" cy="3.5" r="3.5" transform="translate(209 1626)" fill="#e7f0fc"/>
    <circle id="Ellipse_287" data-name="Ellipse 287" cx="3.5" cy="3.5" r="3.5" transform="translate(209 1647)" fill="#e7f0fc"/>
    <circle id="Ellipse_288" data-name="Ellipse 288" cx="3.5" cy="3.5" r="3.5" transform="translate(209 1668)" fill="#e7f0fc"/>
    <circle id="Ellipse_289" data-name="Ellipse 289" cx="3.5" cy="3.5" r="3.5" transform="translate(209 1689)" fill="#e7f0fc"/>
    <circle id="Ellipse_290" data-name="Ellipse 290" cx="3.5" cy="3.5" r="3.5" transform="translate(209 1710)" fill="#e7f0fc"/>
    <circle id="Ellipse_291" data-name="Ellipse 291" cx="3.5" cy="3.5" r="3.5" transform="translate(209 1731)" fill="#e7f0fc"/>
    <circle id="Ellipse_292" data-name="Ellipse 292" cx="3.5" cy="3.5" r="3.5" transform="translate(209 1752)" fill="#e7f0fc"/>
    <circle id="Ellipse_293" data-name="Ellipse 293" cx="3.5" cy="3.5" r="3.5" transform="translate(209 1773)" fill="#e7f0fc"/>
    <circle id="Ellipse_294" data-name="Ellipse 294" cx="3.5" cy="3.5" r="3.5" transform="translate(230 1626)" fill="#e7f0fc"/>
    <circle id="Ellipse_295" data-name="Ellipse 295" cx="3.5" cy="3.5" r="3.5" transform="translate(230 1647)" fill="#e7f0fc"/>
    <circle id="Ellipse_296" data-name="Ellipse 296" cx="3.5" cy="3.5" r="3.5" transform="translate(230 1668)" fill="#e7f0fc"/>
    <circle id="Ellipse_297" data-name="Ellipse 297" cx="3.5" cy="3.5" r="3.5" transform="translate(230 1689)" fill="#e7f0fc"/>
    <circle id="Ellipse_298" data-name="Ellipse 298" cx="3.5" cy="3.5" r="3.5" transform="translate(230 1710)" fill="#e7f0fc"/>
    <circle id="Ellipse_299" data-name="Ellipse 299" cx="3.5" cy="3.5" r="3.5" transform="translate(230 1731)" fill="#e7f0fc"/>
    <circle id="Ellipse_300" data-name="Ellipse 300" cx="3.5" cy="3.5" r="3.5" transform="translate(230 1752)" fill="#e7f0fc"/>
    <circle id="Ellipse_301" data-name="Ellipse 301" cx="3.5" cy="3.5" r="3.5" transform="translate(230 1773)" fill="#e7f0fc"/>
    <circle id="Ellipse_302" data-name="Ellipse 302" cx="3.5" cy="3.5" r="3.5" transform="translate(251 1626)" fill="#e7f0fc"/>
    <circle id="Ellipse_303" data-name="Ellipse 303" cx="3.5" cy="3.5" r="3.5" transform="translate(251 1647)" fill="#e7f0fc"/>
    <circle id="Ellipse_304" data-name="Ellipse 304" cx="3.5" cy="3.5" r="3.5" transform="translate(251 1668)" fill="#e7f0fc"/>
    <circle id="Ellipse_305" data-name="Ellipse 305" cx="3.5" cy="3.5" r="3.5" transform="translate(251 1689)" fill="#e7f0fc"/>
    <circle id="Ellipse_306" data-name="Ellipse 306" cx="3.5" cy="3.5" r="3.5" transform="translate(251 1710)" fill="#e7f0fc"/>
    <circle id="Ellipse_307" data-name="Ellipse 307" cx="3.5" cy="3.5" r="3.5" transform="translate(251 1731)" fill="#e7f0fc"/>
    <circle id="Ellipse_308" data-name="Ellipse 308" cx="3.5" cy="3.5" r="3.5" transform="translate(251 1752)" fill="#e7f0fc"/>
    <circle id="Ellipse_309" data-name="Ellipse 309" cx="3.5" cy="3.5" r="3.5" transform="translate(251 1773)" fill="#e7f0fc"/>
    <circle id="Ellipse_310" data-name="Ellipse 310" cx="3.5" cy="3.5" r="3.5" transform="translate(272 1626)" fill="#e7f0fc"/>
    <circle id="Ellipse_311" data-name="Ellipse 311" cx="3.5" cy="3.5" r="3.5" transform="translate(272 1647)" fill="#e7f0fc"/>
    <circle id="Ellipse_312" data-name="Ellipse 312" cx="3.5" cy="3.5" r="3.5" transform="translate(272 1668)" fill="#e7f0fc"/>
    <circle id="Ellipse_313" data-name="Ellipse 313" cx="3.5" cy="3.5" r="3.5" transform="translate(272 1689)" fill="#e7f0fc"/>
    <circle id="Ellipse_314" data-name="Ellipse 314" cx="3.5" cy="3.5" r="3.5" transform="translate(272 1710)" fill="#e7f0fc"/>
    <circle id="Ellipse_315" data-name="Ellipse 315" cx="3.5" cy="3.5" r="3.5" transform="translate(272 1731)" fill="#e7f0fc"/>
    <circle id="Ellipse_316" data-name="Ellipse 316" cx="3.5" cy="3.5" r="3.5" transform="translate(272 1752)" fill="#e7f0fc"/>
    <circle id="Ellipse_317" data-name="Ellipse 317" cx="3.5" cy="3.5" r="3.5" transform="translate(272 1773)" fill="#e7f0fc"/>
    <circle id="Ellipse_318" data-name="Ellipse 318" cx="3.5" cy="3.5" r="3.5" transform="translate(293 1626)" fill="#e7f0fc"/>
    <circle id="Ellipse_319" data-name="Ellipse 319" cx="3.5" cy="3.5" r="3.5" transform="translate(293 1647)" fill="#e7f0fc"/>
    <circle id="Ellipse_320" data-name="Ellipse 320" cx="3.5" cy="3.5" r="3.5" transform="translate(293 1668)" fill="#e7f0fc"/>
    <circle id="Ellipse_321" data-name="Ellipse 321" cx="3.5" cy="3.5" r="3.5" transform="translate(293 1689)" fill="#e7f0fc"/>
    <circle id="Ellipse_322" data-name="Ellipse 322" cx="3.5" cy="3.5" r="3.5" transform="translate(293 1710)" fill="#e7f0fc"/>
    <circle id="Ellipse_323" data-name="Ellipse 323" cx="3.5" cy="3.5" r="3.5" transform="translate(293 1731)" fill="#e7f0fc"/>
    <circle id="Ellipse_324" data-name="Ellipse 324" cx="3.5" cy="3.5" r="3.5" transform="translate(293 1752)" fill="#e7f0fc"/>
    <circle id="Ellipse_325" data-name="Ellipse 325" cx="3.5" cy="3.5" r="3.5" transform="translate(293 1773)" fill="#e7f0fc"/>
    <circle id="Ellipse_326" data-name="Ellipse 326" cx="3.5" cy="3.5" r="3.5" transform="translate(314 1626)" fill="#e7f0fc"/>
    <circle id="Ellipse_327" data-name="Ellipse 327" cx="3.5" cy="3.5" r="3.5" transform="translate(314 1647)" fill="#e7f0fc"/>
    <circle id="Ellipse_328" data-name="Ellipse 328" cx="3.5" cy="3.5" r="3.5" transform="translate(314 1668)" fill="#e7f0fc"/>
    <circle id="Ellipse_329" data-name="Ellipse 329" cx="3.5" cy="3.5" r="3.5" transform="translate(314 1689)" fill="#e7f0fc"/>
    <circle id="Ellipse_330" data-name="Ellipse 330" cx="3.5" cy="3.5" r="3.5" transform="translate(314 1710)" fill="#e7f0fc"/>
    <circle id="Ellipse_331" data-name="Ellipse 331" cx="3.5" cy="3.5" r="3.5" transform="translate(314 1731)" fill="#e7f0fc"/>
    <circle id="Ellipse_332" data-name="Ellipse 332" cx="3.5" cy="3.5" r="3.5" transform="translate(314 1752)" fill="#e7f0fc"/>
    <circle id="Ellipse_333" data-name="Ellipse 333" cx="3.5" cy="3.5" r="3.5" transform="translate(314 1773)" fill="#e7f0fc"/>
  </g>
</svg>
