<svg xmlns="http://www.w3.org/2000/svg" width="404" height="154" viewBox="0 0 404 154">
  <g id="element_1" data-name="element 1" transform="translate(-68 -469)">
    <circle id="Ellipse_12" data-name="Ellipse 12" cx="3.5" cy="3.5" r="3.5" transform="translate(276 469)" fill="#f4f4f4"/>
    <circle id="Ellipse_13" data-name="Ellipse 13" cx="3.5" cy="3.5" r="3.5" transform="translate(276 490)" fill="#f4f4f4"/>
    <circle id="Ellipse_14" data-name="Ellipse 14" cx="3.5" cy="3.5" r="3.5" transform="translate(276 511)" fill="#f4f4f4"/>
    <circle id="Ellipse_15" data-name="Ellipse 15" cx="3.5" cy="3.5" r="3.5" transform="translate(276 532)" fill="#f4f4f4"/>
    <circle id="Ellipse_16" data-name="Ellipse 16" cx="3.5" cy="3.5" r="3.5" transform="translate(276 553)" fill="#f4f4f4"/>
    <circle id="Ellipse_17" data-name="Ellipse 17" cx="3.5" cy="3.5" r="3.5" transform="translate(276 574)" fill="#f4f4f4"/>
    <circle id="Ellipse_18" data-name="Ellipse 18" cx="3.5" cy="3.5" r="3.5" transform="translate(276 595)" fill="#f4f4f4"/>
    <circle id="Ellipse_19" data-name="Ellipse 19" cx="3.5" cy="3.5" r="3.5" transform="translate(276 616)" fill="#f4f4f4"/>
    <circle id="Ellipse_20" data-name="Ellipse 20" cx="3.5" cy="3.5" r="3.5" transform="translate(297 469)" fill="#f4f4f4"/>
    <circle id="Ellipse_21" data-name="Ellipse 21" cx="3.5" cy="3.5" r="3.5" transform="translate(297 490)" fill="#f4f4f4"/>
    <circle id="Ellipse_22" data-name="Ellipse 22" cx="3.5" cy="3.5" r="3.5" transform="translate(297 511)" fill="#f4f4f4"/>
    <circle id="Ellipse_23" data-name="Ellipse 23" cx="3.5" cy="3.5" r="3.5" transform="translate(297 532)" fill="#f4f4f4"/>
    <circle id="Ellipse_24" data-name="Ellipse 24" cx="3.5" cy="3.5" r="3.5" transform="translate(297 553)" fill="#f4f4f4"/>
    <circle id="Ellipse_25" data-name="Ellipse 25" cx="3.5" cy="3.5" r="3.5" transform="translate(297 574)" fill="#f4f4f4"/>
    <circle id="Ellipse_26" data-name="Ellipse 26" cx="3.5" cy="3.5" r="3.5" transform="translate(297 595)" fill="#f4f4f4"/>
    <circle id="Ellipse_27" data-name="Ellipse 27" cx="3.5" cy="3.5" r="3.5" transform="translate(297 616)" fill="#f4f4f4"/>
    <circle id="Ellipse_28" data-name="Ellipse 28" cx="3.5" cy="3.5" r="3.5" transform="translate(318 469)" fill="#f4f4f4"/>
    <circle id="Ellipse_29" data-name="Ellipse 29" cx="3.5" cy="3.5" r="3.5" transform="translate(318 490)" fill="#f4f4f4"/>
    <circle id="Ellipse_30" data-name="Ellipse 30" cx="3.5" cy="3.5" r="3.5" transform="translate(318 511)" fill="#f4f4f4"/>
    <circle id="Ellipse_31" data-name="Ellipse 31" cx="3.5" cy="3.5" r="3.5" transform="translate(318 532)" fill="#f4f4f4"/>
    <circle id="Ellipse_32" data-name="Ellipse 32" cx="3.5" cy="3.5" r="3.5" transform="translate(318 553)" fill="#f4f4f4"/>
    <circle id="Ellipse_33" data-name="Ellipse 33" cx="3.5" cy="3.5" r="3.5" transform="translate(318 574)" fill="#f4f4f4"/>
    <circle id="Ellipse_34" data-name="Ellipse 34" cx="3.5" cy="3.5" r="3.5" transform="translate(318 595)" fill="#f4f4f4"/>
    <circle id="Ellipse_35" data-name="Ellipse 35" cx="3.5" cy="3.5" r="3.5" transform="translate(318 616)" fill="#f4f4f4"/>
    <circle id="Ellipse_36" data-name="Ellipse 36" cx="3.5" cy="3.5" r="3.5" transform="translate(339 469)" fill="#f4f4f4"/>
    <circle id="Ellipse_37" data-name="Ellipse 37" cx="3.5" cy="3.5" r="3.5" transform="translate(339 490)" fill="#f4f4f4"/>
    <circle id="Ellipse_38" data-name="Ellipse 38" cx="3.5" cy="3.5" r="3.5" transform="translate(339 511)" fill="#f4f4f4"/>
    <circle id="Ellipse_39" data-name="Ellipse 39" cx="3.5" cy="3.5" r="3.5" transform="translate(339 532)" fill="#f4f4f4"/>
    <circle id="Ellipse_40" data-name="Ellipse 40" cx="3.5" cy="3.5" r="3.5" transform="translate(339 553)" fill="#f4f4f4"/>
    <circle id="Ellipse_41" data-name="Ellipse 41" cx="3.5" cy="3.5" r="3.5" transform="translate(339 574)" fill="#f4f4f4"/>
    <circle id="Ellipse_42" data-name="Ellipse 42" cx="3.5" cy="3.5" r="3.5" transform="translate(339 595)" fill="#f4f4f4"/>
    <circle id="Ellipse_43" data-name="Ellipse 43" cx="3.5" cy="3.5" r="3.5" transform="translate(339 616)" fill="#f4f4f4"/>
    <circle id="Ellipse_44" data-name="Ellipse 44" cx="3.5" cy="3.5" r="3.5" transform="translate(360 469)" fill="#f4f4f4"/>
    <circle id="Ellipse_45" data-name="Ellipse 45" cx="3.5" cy="3.5" r="3.5" transform="translate(360 490)" fill="#f4f4f4"/>
    <circle id="Ellipse_46" data-name="Ellipse 46" cx="3.5" cy="3.5" r="3.5" transform="translate(360 511)" fill="#f4f4f4"/>
    <circle id="Ellipse_47" data-name="Ellipse 47" cx="3.5" cy="3.5" r="3.5" transform="translate(360 532)" fill="#f4f4f4"/>
    <circle id="Ellipse_48" data-name="Ellipse 48" cx="3.5" cy="3.5" r="3.5" transform="translate(360 553)" fill="#f4f4f4"/>
    <circle id="Ellipse_49" data-name="Ellipse 49" cx="3.5" cy="3.5" r="3.5" transform="translate(360 574)" fill="#f4f4f4"/>
    <circle id="Ellipse_50" data-name="Ellipse 50" cx="3.5" cy="3.5" r="3.5" transform="translate(360 595)" fill="#f4f4f4"/>
    <circle id="Ellipse_51" data-name="Ellipse 51" cx="3.5" cy="3.5" r="3.5" transform="translate(360 616)" fill="#f4f4f4"/>
    <circle id="Ellipse_52" data-name="Ellipse 52" cx="3.5" cy="3.5" r="3.5" transform="translate(381 469)" fill="#f4f4f4"/>
    <circle id="Ellipse_53" data-name="Ellipse 53" cx="3.5" cy="3.5" r="3.5" transform="translate(381 490)" fill="#f4f4f4"/>
    <circle id="Ellipse_54" data-name="Ellipse 54" cx="3.5" cy="3.5" r="3.5" transform="translate(381 511)" fill="#f4f4f4"/>
    <circle id="Ellipse_55" data-name="Ellipse 55" cx="3.5" cy="3.5" r="3.5" transform="translate(381 532)" fill="#f4f4f4"/>
    <circle id="Ellipse_56" data-name="Ellipse 56" cx="3.5" cy="3.5" r="3.5" transform="translate(381 553)" fill="#f4f4f4"/>
    <circle id="Ellipse_57" data-name="Ellipse 57" cx="3.5" cy="3.5" r="3.5" transform="translate(381 574)" fill="#f4f4f4"/>
    <circle id="Ellipse_58" data-name="Ellipse 58" cx="3.5" cy="3.5" r="3.5" transform="translate(381 595)" fill="#f4f4f4"/>
    <circle id="Ellipse_59" data-name="Ellipse 59" cx="3.5" cy="3.5" r="3.5" transform="translate(381 616)" fill="#f4f4f4"/>
    <circle id="Ellipse_60" data-name="Ellipse 60" cx="3.5" cy="3.5" r="3.5" transform="translate(402 469)" fill="#f4f4f4"/>
    <circle id="Ellipse_61" data-name="Ellipse 61" cx="3.5" cy="3.5" r="3.5" transform="translate(402 490)" fill="#f4f4f4"/>
    <circle id="Ellipse_62" data-name="Ellipse 62" cx="3.5" cy="3.5" r="3.5" transform="translate(402 511)" fill="#f4f4f4"/>
    <circle id="Ellipse_63" data-name="Ellipse 63" cx="3.5" cy="3.5" r="3.5" transform="translate(402 532)" fill="#f4f4f4"/>
    <circle id="Ellipse_64" data-name="Ellipse 64" cx="3.5" cy="3.5" r="3.5" transform="translate(402 553)" fill="#f4f4f4"/>
    <circle id="Ellipse_65" data-name="Ellipse 65" cx="3.5" cy="3.5" r="3.5" transform="translate(402 574)" fill="#f4f4f4"/>
    <circle id="Ellipse_66" data-name="Ellipse 66" cx="3.5" cy="3.5" r="3.5" transform="translate(402 595)" fill="#f4f4f4"/>
    <circle id="Ellipse_67" data-name="Ellipse 67" cx="3.5" cy="3.5" r="3.5" transform="translate(402 616)" fill="#f4f4f4"/>
    <circle id="Ellipse_68" data-name="Ellipse 68" cx="3.5" cy="3.5" r="3.5" transform="translate(423 469)" fill="#f4f4f4"/>
    <circle id="Ellipse_69" data-name="Ellipse 69" cx="3.5" cy="3.5" r="3.5" transform="translate(423 490)" fill="#f4f4f4"/>
    <circle id="Ellipse_70" data-name="Ellipse 70" cx="3.5" cy="3.5" r="3.5" transform="translate(423 511)" fill="#f4f4f4"/>
    <circle id="Ellipse_71" data-name="Ellipse 71" cx="3.5" cy="3.5" r="3.5" transform="translate(423 532)" fill="#f4f4f4"/>
    <circle id="Ellipse_72" data-name="Ellipse 72" cx="3.5" cy="3.5" r="3.5" transform="translate(423 553)" fill="#f4f4f4"/>
    <circle id="Ellipse_73" data-name="Ellipse 73" cx="3.5" cy="3.5" r="3.5" transform="translate(423 574)" fill="#f4f4f4"/>
    <circle id="Ellipse_74" data-name="Ellipse 74" cx="3.5" cy="3.5" r="3.5" transform="translate(423 595)" fill="#f4f4f4"/>
    <circle id="Ellipse_75" data-name="Ellipse 75" cx="3.5" cy="3.5" r="3.5" transform="translate(423 616)" fill="#f4f4f4"/>
    <circle id="Ellipse_76" data-name="Ellipse 76" cx="3.5" cy="3.5" r="3.5" transform="translate(444 469)" fill="#f4f4f4"/>
    <circle id="Ellipse_77" data-name="Ellipse 77" cx="3.5" cy="3.5" r="3.5" transform="translate(444 490)" fill="#f4f4f4"/>
    <circle id="Ellipse_78" data-name="Ellipse 78" cx="3.5" cy="3.5" r="3.5" transform="translate(444 511)" fill="#f4f4f4"/>
    <circle id="Ellipse_79" data-name="Ellipse 79" cx="3.5" cy="3.5" r="3.5" transform="translate(444 532)" fill="#f4f4f4"/>
    <circle id="Ellipse_80" data-name="Ellipse 80" cx="3.5" cy="3.5" r="3.5" transform="translate(444 553)" fill="#f4f4f4"/>
    <circle id="Ellipse_81" data-name="Ellipse 81" cx="3.5" cy="3.5" r="3.5" transform="translate(444 574)" fill="#f4f4f4"/>
    <circle id="Ellipse_82" data-name="Ellipse 82" cx="3.5" cy="3.5" r="3.5" transform="translate(444 595)" fill="#f4f4f4"/>
    <circle id="Ellipse_83" data-name="Ellipse 83" cx="3.5" cy="3.5" r="3.5" transform="translate(444 616)" fill="#f4f4f4"/>
    <circle id="Ellipse_84" data-name="Ellipse 84" cx="3.5" cy="3.5" r="3.5" transform="translate(465 469)" fill="#f4f4f4"/>
    <circle id="Ellipse_85" data-name="Ellipse 85" cx="3.5" cy="3.5" r="3.5" transform="translate(465 490)" fill="#f4f4f4"/>
    <circle id="Ellipse_86" data-name="Ellipse 86" cx="3.5" cy="3.5" r="3.5" transform="translate(465 511)" fill="#f4f4f4"/>
    <circle id="Ellipse_87" data-name="Ellipse 87" cx="3.5" cy="3.5" r="3.5" transform="translate(465 532)" fill="#f4f4f4"/>
    <circle id="Ellipse_88" data-name="Ellipse 88" cx="3.5" cy="3.5" r="3.5" transform="translate(465 553)" fill="#f4f4f4"/>
    <circle id="Ellipse_89" data-name="Ellipse 89" cx="3.5" cy="3.5" r="3.5" transform="translate(465 574)" fill="#f4f4f4"/>
    <circle id="Ellipse_90" data-name="Ellipse 90" cx="3.5" cy="3.5" r="3.5" transform="translate(465 595)" fill="#f4f4f4"/>
    <circle id="Ellipse_91" data-name="Ellipse 91" cx="3.5" cy="3.5" r="3.5" transform="translate(465 616)" fill="#f4f4f4"/>
    <circle id="Ellipse_92" data-name="Ellipse 92" cx="3.5" cy="3.5" r="3.5" transform="translate(68 469)" fill="#f4f4f4"/>
    <circle id="Ellipse_93" data-name="Ellipse 93" cx="3.5" cy="3.5" r="3.5" transform="translate(68 490)" fill="#f4f4f4"/>
    <circle id="Ellipse_94" data-name="Ellipse 94" cx="3.5" cy="3.5" r="3.5" transform="translate(68 511)" fill="#f4f4f4"/>
    <circle id="Ellipse_95" data-name="Ellipse 95" cx="3.5" cy="3.5" r="3.5" transform="translate(68 532)" fill="#f4f4f4"/>
    <circle id="Ellipse_96" data-name="Ellipse 96" cx="3.5" cy="3.5" r="3.5" transform="translate(68 553)" fill="#f4f4f4"/>
    <circle id="Ellipse_97" data-name="Ellipse 97" cx="3.5" cy="3.5" r="3.5" transform="translate(68 574)" fill="#f4f4f4"/>
    <circle id="Ellipse_98" data-name="Ellipse 98" cx="3.5" cy="3.5" r="3.5" transform="translate(68 595)" fill="#f4f4f4"/>
    <circle id="Ellipse_99" data-name="Ellipse 99" cx="3.5" cy="3.5" r="3.5" transform="translate(68 616)" fill="#f4f4f4"/>
    <circle id="Ellipse_100" data-name="Ellipse 100" cx="3.5" cy="3.5" r="3.5" transform="translate(89 469)" fill="#f4f4f4"/>
    <circle id="Ellipse_101" data-name="Ellipse 101" cx="3.5" cy="3.5" r="3.5" transform="translate(89 490)" fill="#f4f4f4"/>
    <circle id="Ellipse_102" data-name="Ellipse 102" cx="3.5" cy="3.5" r="3.5" transform="translate(89 511)" fill="#f4f4f4"/>
    <circle id="Ellipse_103" data-name="Ellipse 103" cx="3.5" cy="3.5" r="3.5" transform="translate(89 532)" fill="#f4f4f4"/>
    <circle id="Ellipse_104" data-name="Ellipse 104" cx="3.5" cy="3.5" r="3.5" transform="translate(89 553)" fill="#f4f4f4"/>
    <circle id="Ellipse_105" data-name="Ellipse 105" cx="3.5" cy="3.5" r="3.5" transform="translate(89 574)" fill="#f4f4f4"/>
    <circle id="Ellipse_106" data-name="Ellipse 106" cx="3.5" cy="3.5" r="3.5" transform="translate(89 595)" fill="#f4f4f4"/>
    <circle id="Ellipse_107" data-name="Ellipse 107" cx="3.5" cy="3.5" r="3.5" transform="translate(89 616)" fill="#f4f4f4"/>
    <circle id="Ellipse_108" data-name="Ellipse 108" cx="3.5" cy="3.5" r="3.5" transform="translate(110 469)" fill="#f4f4f4"/>
    <circle id="Ellipse_109" data-name="Ellipse 109" cx="3.5" cy="3.5" r="3.5" transform="translate(110 490)" fill="#f4f4f4"/>
    <circle id="Ellipse_110" data-name="Ellipse 110" cx="3.5" cy="3.5" r="3.5" transform="translate(110 511)" fill="#f4f4f4"/>
    <circle id="Ellipse_111" data-name="Ellipse 111" cx="3.5" cy="3.5" r="3.5" transform="translate(110 532)" fill="#f4f4f4"/>
    <circle id="Ellipse_112" data-name="Ellipse 112" cx="3.5" cy="3.5" r="3.5" transform="translate(110 553)" fill="#f4f4f4"/>
    <circle id="Ellipse_113" data-name="Ellipse 113" cx="3.5" cy="3.5" r="3.5" transform="translate(110 574)" fill="#f4f4f4"/>
    <circle id="Ellipse_114" data-name="Ellipse 114" cx="3.5" cy="3.5" r="3.5" transform="translate(110 595)" fill="#f4f4f4"/>
    <circle id="Ellipse_115" data-name="Ellipse 115" cx="3.5" cy="3.5" r="3.5" transform="translate(110 616)" fill="#f4f4f4"/>
    <circle id="Ellipse_116" data-name="Ellipse 116" cx="3.5" cy="3.5" r="3.5" transform="translate(131 469)" fill="#f4f4f4"/>
    <circle id="Ellipse_117" data-name="Ellipse 117" cx="3.5" cy="3.5" r="3.5" transform="translate(131 490)" fill="#f4f4f4"/>
    <circle id="Ellipse_118" data-name="Ellipse 118" cx="3.5" cy="3.5" r="3.5" transform="translate(131 511)" fill="#f4f4f4"/>
    <circle id="Ellipse_119" data-name="Ellipse 119" cx="3.5" cy="3.5" r="3.5" transform="translate(131 532)" fill="#f4f4f4"/>
    <circle id="Ellipse_120" data-name="Ellipse 120" cx="3.5" cy="3.5" r="3.5" transform="translate(131 553)" fill="#f4f4f4"/>
    <circle id="Ellipse_121" data-name="Ellipse 121" cx="3.5" cy="3.5" r="3.5" transform="translate(131 574)" fill="#f4f4f4"/>
    <circle id="Ellipse_122" data-name="Ellipse 122" cx="3.5" cy="3.5" r="3.5" transform="translate(131 595)" fill="#f4f4f4"/>
    <circle id="Ellipse_123" data-name="Ellipse 123" cx="3.5" cy="3.5" r="3.5" transform="translate(131 616)" fill="#f4f4f4"/>
    <circle id="Ellipse_124" data-name="Ellipse 124" cx="3.5" cy="3.5" r="3.5" transform="translate(152 469)" fill="#f4f4f4"/>
    <circle id="Ellipse_125" data-name="Ellipse 125" cx="3.5" cy="3.5" r="3.5" transform="translate(152 490)" fill="#f4f4f4"/>
    <circle id="Ellipse_126" data-name="Ellipse 126" cx="3.5" cy="3.5" r="3.5" transform="translate(152 511)" fill="#f4f4f4"/>
    <circle id="Ellipse_127" data-name="Ellipse 127" cx="3.5" cy="3.5" r="3.5" transform="translate(152 532)" fill="#f4f4f4"/>
    <circle id="Ellipse_128" data-name="Ellipse 128" cx="3.5" cy="3.5" r="3.5" transform="translate(152 553)" fill="#f4f4f4"/>
    <circle id="Ellipse_129" data-name="Ellipse 129" cx="3.5" cy="3.5" r="3.5" transform="translate(152 574)" fill="#f4f4f4"/>
    <circle id="Ellipse_130" data-name="Ellipse 130" cx="3.5" cy="3.5" r="3.5" transform="translate(152 595)" fill="#f4f4f4"/>
    <circle id="Ellipse_131" data-name="Ellipse 131" cx="3.5" cy="3.5" r="3.5" transform="translate(152 616)" fill="#f4f4f4"/>
    <circle id="Ellipse_132" data-name="Ellipse 132" cx="3.5" cy="3.5" r="3.5" transform="translate(173 469)" fill="#f4f4f4"/>
    <circle id="Ellipse_133" data-name="Ellipse 133" cx="3.5" cy="3.5" r="3.5" transform="translate(173 490)" fill="#f4f4f4"/>
    <circle id="Ellipse_134" data-name="Ellipse 134" cx="3.5" cy="3.5" r="3.5" transform="translate(173 511)" fill="#f4f4f4"/>
    <circle id="Ellipse_135" data-name="Ellipse 135" cx="3.5" cy="3.5" r="3.5" transform="translate(173 532)" fill="#f4f4f4"/>
    <circle id="Ellipse_136" data-name="Ellipse 136" cx="3.5" cy="3.5" r="3.5" transform="translate(173 553)" fill="#f4f4f4"/>
    <circle id="Ellipse_137" data-name="Ellipse 137" cx="3.5" cy="3.5" r="3.5" transform="translate(173 574)" fill="#f4f4f4"/>
    <circle id="Ellipse_138" data-name="Ellipse 138" cx="3.5" cy="3.5" r="3.5" transform="translate(173 595)" fill="#f4f4f4"/>
    <circle id="Ellipse_139" data-name="Ellipse 139" cx="3.5" cy="3.5" r="3.5" transform="translate(173 616)" fill="#f4f4f4"/>
    <circle id="Ellipse_140" data-name="Ellipse 140" cx="3.5" cy="3.5" r="3.5" transform="translate(194 469)" fill="#f4f4f4"/>
    <circle id="Ellipse_141" data-name="Ellipse 141" cx="3.5" cy="3.5" r="3.5" transform="translate(194 490)" fill="#f4f4f4"/>
    <circle id="Ellipse_142" data-name="Ellipse 142" cx="3.5" cy="3.5" r="3.5" transform="translate(194 511)" fill="#f4f4f4"/>
    <circle id="Ellipse_143" data-name="Ellipse 143" cx="3.5" cy="3.5" r="3.5" transform="translate(194 532)" fill="#f4f4f4"/>
    <circle id="Ellipse_144" data-name="Ellipse 144" cx="3.5" cy="3.5" r="3.5" transform="translate(194 553)" fill="#f4f4f4"/>
    <circle id="Ellipse_145" data-name="Ellipse 145" cx="3.5" cy="3.5" r="3.5" transform="translate(194 574)" fill="#f4f4f4"/>
    <circle id="Ellipse_146" data-name="Ellipse 146" cx="3.5" cy="3.5" r="3.5" transform="translate(194 595)" fill="#f4f4f4"/>
    <circle id="Ellipse_147" data-name="Ellipse 147" cx="3.5" cy="3.5" r="3.5" transform="translate(194 616)" fill="#f4f4f4"/>
    <circle id="Ellipse_148" data-name="Ellipse 148" cx="3.5" cy="3.5" r="3.5" transform="translate(215 469)" fill="#f4f4f4"/>
    <circle id="Ellipse_149" data-name="Ellipse 149" cx="3.5" cy="3.5" r="3.5" transform="translate(215 490)" fill="#f4f4f4"/>
    <circle id="Ellipse_150" data-name="Ellipse 150" cx="3.5" cy="3.5" r="3.5" transform="translate(215 511)" fill="#f4f4f4"/>
    <circle id="Ellipse_151" data-name="Ellipse 151" cx="3.5" cy="3.5" r="3.5" transform="translate(215 532)" fill="#f4f4f4"/>
    <circle id="Ellipse_152" data-name="Ellipse 152" cx="3.5" cy="3.5" r="3.5" transform="translate(215 553)" fill="#f4f4f4"/>
    <circle id="Ellipse_153" data-name="Ellipse 153" cx="3.5" cy="3.5" r="3.5" transform="translate(215 574)" fill="#f4f4f4"/>
    <circle id="Ellipse_154" data-name="Ellipse 154" cx="3.5" cy="3.5" r="3.5" transform="translate(215 595)" fill="#f4f4f4"/>
    <circle id="Ellipse_155" data-name="Ellipse 155" cx="3.5" cy="3.5" r="3.5" transform="translate(215 616)" fill="#f4f4f4"/>
    <circle id="Ellipse_156" data-name="Ellipse 156" cx="3.5" cy="3.5" r="3.5" transform="translate(236 469)" fill="#f4f4f4"/>
    <circle id="Ellipse_157" data-name="Ellipse 157" cx="3.5" cy="3.5" r="3.5" transform="translate(236 490)" fill="#f4f4f4"/>
    <circle id="Ellipse_158" data-name="Ellipse 158" cx="3.5" cy="3.5" r="3.5" transform="translate(236 511)" fill="#f4f4f4"/>
    <circle id="Ellipse_159" data-name="Ellipse 159" cx="3.5" cy="3.5" r="3.5" transform="translate(236 532)" fill="#f4f4f4"/>
    <circle id="Ellipse_160" data-name="Ellipse 160" cx="3.5" cy="3.5" r="3.5" transform="translate(236 553)" fill="#f4f4f4"/>
    <circle id="Ellipse_161" data-name="Ellipse 161" cx="3.5" cy="3.5" r="3.5" transform="translate(236 574)" fill="#f4f4f4"/>
    <circle id="Ellipse_162" data-name="Ellipse 162" cx="3.5" cy="3.5" r="3.5" transform="translate(236 595)" fill="#f4f4f4"/>
    <circle id="Ellipse_163" data-name="Ellipse 163" cx="3.5" cy="3.5" r="3.5" transform="translate(236 616)" fill="#f4f4f4"/>
    <circle id="Ellipse_164" data-name="Ellipse 164" cx="3.5" cy="3.5" r="3.5" transform="translate(257 469)" fill="#f4f4f4"/>
    <circle id="Ellipse_165" data-name="Ellipse 165" cx="3.5" cy="3.5" r="3.5" transform="translate(257 490)" fill="#f4f4f4"/>
    <circle id="Ellipse_166" data-name="Ellipse 166" cx="3.5" cy="3.5" r="3.5" transform="translate(257 511)" fill="#f4f4f4"/>
    <circle id="Ellipse_167" data-name="Ellipse 167" cx="3.5" cy="3.5" r="3.5" transform="translate(257 532)" fill="#f4f4f4"/>
    <circle id="Ellipse_168" data-name="Ellipse 168" cx="3.5" cy="3.5" r="3.5" transform="translate(257 553)" fill="#f4f4f4"/>
    <circle id="Ellipse_169" data-name="Ellipse 169" cx="3.5" cy="3.5" r="3.5" transform="translate(257 574)" fill="#f4f4f4"/>
    <circle id="Ellipse_170" data-name="Ellipse 170" cx="3.5" cy="3.5" r="3.5" transform="translate(257 595)" fill="#f4f4f4"/>
    <circle id="Ellipse_171" data-name="Ellipse 171" cx="3.5" cy="3.5" r="3.5" transform="translate(257 616)" fill="#f4f4f4"/>
  </g>
</svg>
