<svg xmlns="http://www.w3.org/2000/svg" xmlns:xlink="http://www.w3.org/1999/xlink" width="150.483" height="49.377" viewBox="0 0 150.483 49.377">
  <defs>
    <clipPath id="clip-path">
      <rect id="Rectangle_68" data-name="Rectangle 68" width="150.483" height="49.377" transform="translate(516 820)" fill="#fff"/>
    </clipPath>
  </defs>
  <g id="googlr" transform="translate(-516 -820)" clip-path="url(#clip-path)">
    <path id="Path_635" data-name="Path 635" d="M661.8,850.177l4.174,2.783a12.191,12.191,0,0,1-10.2,5.419,11.97,11.97,0,0,1-12.139-12.23c0-7.288,5.237-12.231,11.553-12.231,6.354,0,9.466,5.053,10.473,7.781l.549,1.392-16.368,6.774a6.2,6.2,0,0,0,5.932,3.7A6.968,6.968,0,0,0,661.8,850.177Zm-12.835-4.413,10.931-4.541a4.748,4.748,0,0,0-4.541-2.6A6.723,6.723,0,0,0,648.961,845.764Z" fill="#ff302f"/>
    <path id="Path_636" data-name="Path 636" d="M635.742,821.449h5.273v35.813h-5.273Z" fill="#20b15a"/>
    <path id="Path_637" data-name="Path 637" d="M627.429,834.87h5.09v21.751c0,9.027-5.328,12.744-11.626,12.744a11.65,11.65,0,0,1-10.839-7.232l4.669-1.941a6.777,6.777,0,0,0,6.17,4.357c4.046,0,6.536-2.508,6.536-7.2V855.6h-.183a8.4,8.4,0,0,1-6.445,2.783,12.112,12.112,0,0,1-11.718-12.194c0-6.9,5.6-12.285,11.718-12.285a8.531,8.531,0,0,1,6.445,2.728h.183Zm.367,11.315c0-4.321-2.875-7.47-6.537-7.47-3.7,0-6.811,3.149-6.811,7.47,0,4.266,3.113,7.361,6.811,7.361C624.921,853.564,627.8,850.451,627.8,846.185Z" fill="#3686f7"/>
    <path id="Path_638" data-name="Path 638" d="M580.136,846.094a12.231,12.231,0,1,1-12.23-12.249A12.056,12.056,0,0,1,580.136,846.094Zm-5.346,0c0-4.4-3.186-7.416-6.884-7.416s-6.884,3.021-6.884,7.416a6.9,6.9,0,1,0,13.768,0Z" fill="#ff302f"/>
    <path id="Path_639" data-name="Path 639" d="M606.85,846.149a12.23,12.23,0,1,1-12.231-12.231A12.056,12.056,0,0,1,606.85,846.149Zm-5.365,0c0-4.395-3.186-7.416-6.884-7.416s-6.884,3.021-6.884,7.416a7.066,7.066,0,0,0,6.884,7.415C598.318,853.564,601.485,850.488,601.485,846.149Z" fill="#ffba40"/>
    <path id="Path_640" data-name="Path 640" d="M535.572,853.015a13.862,13.862,0,0,1,0-27.721,13.3,13.3,0,0,1,9.392,3.717l3.68-3.68a18.157,18.157,0,0,0-13.072-5.255,19.08,19.08,0,1,0,0,38.157c5.676,0,9.96-1.868,13.31-5.347,3.443-3.442,4.505-8.275,4.505-12.194a20.591,20.591,0,0,0-.312-3.423h-17.5v5.09H548.04c-.366,3.185-1.373,5.364-2.856,6.847A12.683,12.683,0,0,1,535.572,853.015Z" fill="#3686f7"/>
  </g>
</svg>
