<svg xmlns="http://www.w3.org/2000/svg" xmlns:xlink="http://www.w3.org/1999/xlink" width="36" height="36" viewBox="0 0 36 36">
  <defs>
    <clipPath id="clip-path">
      <rect id="Rectangle_92" data-name="Rectangle 92" width="36" height="36" transform="translate(224 3975)" fill="#fff"/>
    </clipPath>
  </defs>
  <g id="linkedin" transform="translate(-224 -3975)" clip-path="url(#clip-path)">
    <path id="Path_721" data-name="Path 721" d="M242,4011a18,18,0,1,0-18-18A18,18,0,0,0,242,4011Z" fill="#007ab9"/>
    <path id="Path_722" data-name="Path 722" d="M252.755,3994.45v7.42h-4.3v-6.92c0-1.74-.621-2.93-2.179-2.93a2.356,2.356,0,0,0-2.207,1.57,2.964,2.964,0,0,0-.142,1.05v7.23h-4.3s.058-11.73,0-12.94h4.3v1.83a.16.16,0,0,1-.028.04h.028v-.04a4.274,4.274,0,0,1,3.878-2.14C250.633,3988.62,252.755,3990.47,252.755,3994.45Zm-17.635-11.76a2.248,2.248,0,0,0-2.435,2.24,2.225,2.225,0,0,0,2.378,2.23h.028a2.242,2.242,0,1,0,.029-4.47Zm-2.179,19.18h4.3v-12.94h-4.3Z" fill="#f1f2f2"/>
  </g>
</svg>
