<svg xmlns="http://www.w3.org/2000/svg" width="118.75" height="20.143" viewBox="0 0 118.75 20.143">
  <path id="logo" d="M138.677,68,131.7,49.893h-4.832l-7,18.107h4.4l1.14-3.068h7.764L134.279,68Zm-6.569-6.461h-5.647l2.823-7.791Zm19.345-1.629V57.765h-4.86V52.472h-2.362v5.294h-4.886V59.91h4.886v5.511h2.362V59.91Zm16.135,8.253c3.366,0,6.461-1.9,6.461-5.43,0-3.611-2.742-4.479-5.972-5.755-2.417-.923-4.154-1.6-4.127-3.448s1.629-2.823,3.448-2.823a7.614,7.614,0,0,1,4.642,1.955l1.439-1.873a9.7,9.7,0,0,0-6.081-2.253c-3.312,0-5.891,2.226-5.891,5.1,0,3.393,2.9,4.615,5.755,5.674,2.579.977,4.317,1.547,4.317,3.692,0,1.873-1.6,2.959-3.964,2.959a6.915,6.915,0,0,1-5.321-2.606l-1.52,1.819A9.224,9.224,0,0,0,167.588,68.163Zm13.576,0a5.77,5.77,0,0,0,3.2-.814l-.57-1.928a4.968,4.968,0,0,1-2.253.679c-1.249,0-1.6-.76-1.6-2.362V56.68h4.371v-1.9h-4.371V50.029l-2.2.244v4.506h-1.71v1.9h1.71v7.384C177.743,66.724,178.829,68.163,181.164,68.163Zm10.759,0a5.15,5.15,0,0,0,4.371-2.443h.027V68h2.2V54.779h-2.2v6.407c0,3.149-1.819,4.968-3.937,4.968-2.09,0-3.23-1.14-3.23-4.126V54.779h-2.2v7.873C186.955,66.425,188.882,68.163,191.923,68.163Zm16.194,0a5.358,5.358,0,0,0,4.778-2.606h.027V68h2.117V48.02h-2.2v9.121h-.027a5.422,5.422,0,0,0-4.723-2.525c-3.72,0-6.461,2.959-6.461,6.868A6.339,6.339,0,0,0,208.117,68.163Zm.3-2.009a4.442,4.442,0,0,1-4.533-4.669,4.532,4.532,0,1,1,9.04,0A4.453,4.453,0,0,1,208.415,66.154Zm12.007-13.791a1.575,1.575,0,1,0-1.6-1.575A1.582,1.582,0,0,0,220.422,52.363Zm-1.113,2.416V68h2.2V54.779ZM231.8,68.163a6.774,6.774,0,1,0-6.841-6.76A6.529,6.529,0,0,0,231.8,68.163Zm0-2.009a4.769,4.769,0,1,1,4.561-4.751A4.537,4.537,0,0,1,231.8,66.154Z" transform="translate(-119.864 -48.02)"/>
</svg>
