<svg xmlns="http://www.w3.org/2000/svg" xmlns:xlink="http://www.w3.org/1999/xlink" width="36" height="36" viewBox="0 0 36 36">
  <defs>
    <clipPath id="clip-path">
      <rect id="Rectangle_91" data-name="Rectangle 91" width="36" height="36" transform="translate(172 3975)" fill="#fff"/>
    </clipPath>
  </defs>
  <g id="twitter" transform="translate(-172 -3975)" clip-path="url(#clip-path)">
    <path id="Path_719" data-name="Path 719" d="M190,4011a18,18,0,1,0-18-18A18,18,0,0,0,190,4011Z" fill="#55acee"/>
    <path id="Path_720" data-name="Path 720" d="M201.026,3987.94a8.538,8.538,0,0,1-2.472.67,4.291,4.291,0,0,0,1.893-2.38,8.638,8.638,0,0,1-2.733,1.05,4.3,4.3,0,0,0-7.443,2.94,4.229,4.229,0,0,0,.112.98,12.223,12.223,0,0,1-8.869-4.49,4.256,4.256,0,0,0-.582,2.16,4.3,4.3,0,0,0,1.914,3.58,4.287,4.287,0,0,1-1.949-.54v.06a4.3,4.3,0,0,0,3.451,4.21,4.238,4.238,0,0,1-1.133.16,4.316,4.316,0,0,1-.81-.08,4.315,4.315,0,0,0,4.019,2.99,8.694,8.694,0,0,1-6.369,1.78,12.239,12.239,0,0,0,18.836-10.31c0-.19,0-.37-.013-.56A8.633,8.633,0,0,0,201.026,3987.94Z" fill="#f1f2f2"/>
  </g>
</svg>
