<svg xmlns="http://www.w3.org/2000/svg" xmlns:xlink="http://www.w3.org/1999/xlink" width="166.409" height="27.735" viewBox="0 0 166.409 27.735">
  <defs>
    <clipPath id="clip-path">
      <rect id="Rectangle_66" data-name="Rectangle 66" width="166.409" height="27.735" transform="translate(952 830)" fill="#fff"/>
    </clipPath>
  </defs>
  <g id="ubereats" transform="translate(-952 -830)" clip-path="url(#clip-path)">
    <path id="Path_632" data-name="Path 632" d="M1029.14,841.167c-2.46,0-4.21,1.946-4.21,4.933v10.957h-3.77V837.77h3.72v2.356a5.072,5.072,0,0,1,1.91-1.862,4.96,4.96,0,0,1,2.57-.63h1.36v3.533Zm-10.58,6.247c0-5.752-4.06-10.053-9.55-10.053a9.822,9.822,0,0,0-3.78.787,9.933,9.933,0,0,0-3.19,2.189,10,10,0,0,0-2.81,7.077,10.251,10.251,0,0,0,14.76,9.049,10.1,10.1,0,0,0,3.63-3.075l-2.74-2.019a6.6,6.6,0,0,1-2.41,2.087,6.669,6.669,0,0,1-3.11.719,6.425,6.425,0,0,1-6.31-5.52h15.52Zm-15.43-1.769a6.02,6.02,0,0,1,5.83-4.933,5.946,5.946,0,0,1,5.79,4.933ZM987.3,837.361a9.485,9.485,0,0,0-6.764,2.851v-9.644h-3.766v26.489h3.72v-2.446a9.637,9.637,0,0,0,6.819,2.9,9.953,9.953,0,0,0,7.2-2.874,10.126,10.126,0,0,0,0-14.4,9.952,9.952,0,0,0-7.2-2.874Zm-.27,16.755A6.59,6.59,0,0,1,983.34,853a6.689,6.689,0,0,1,2.37-12.119,6.578,6.578,0,0,1,3.833.384,6.648,6.648,0,0,1,2.974,2.47,6.768,6.768,0,0,1,.608,6.264,6.638,6.638,0,0,1-1.429,2.156,6.557,6.557,0,0,1-4.664,1.939Zm-24.128-.182c3.635,0,6.458-2.81,6.458-7.02V830.568h3.9v26.489h-3.856v-2.505a9.538,9.538,0,0,1-6.949,2.942c-5.606,0-9.921-4.119-9.921-10.367V830.568h3.973v16.368C956.51,851.169,959.216,853.934,962.9,853.934Z" fill="#262626"/>
    <path id="Path_633" data-name="Path 633" d="M1040.08,830.568h18.44v4.547h-13.46v6.456h13.08v4.392h-13.08v6.566h13.46v4.547h-18.44Zm69.34,26.985c5.65,0,8.83-2.728,8.83-6.475,0-2.668-1.88-4.66-5.83-5.524l-4.17-.859c-2.42-.455-3.19-.909-3.19-1.819,0-1.177,1.17-1.9,3.32-1.9,2.34,0,4.06.632,4.51,2.8h4.89c-.26-4.092-3.18-6.793-9.1-6.793-5.11,0-8.7,2.128-8.7,6.252,0,2.851,1.97,4.706,6.23,5.611l4.67,1.086c1.84.364,2.33.864,2.33,1.633,0,1.223-1.39,1.991-3.64,1.991-2.82,0-4.43-.632-5.06-2.8h-4.92C1100.31,854.839,1103.31,857.553,1109.42,857.553Zm-11.25-.5h-5.29c-3.32,0-5.16-2.082-5.16-4.71V841.935H1084V837.5h3.74v-5.57h4.92v5.57h5.51v4.437h-5.51v9.143c0,1.042.72,1.542,1.84,1.542h3.67Zm-21.19-19.55v1.764a9.505,9.505,0,0,0-6.19-2.274,10.154,10.154,0,0,0-7.35,2.933,10.353,10.353,0,0,0-2.27,3.361,10.44,10.44,0,0,0,0,7.968,10.351,10.351,0,0,0,2.27,3.361,10.143,10.143,0,0,0,7.35,2.933,9.478,9.478,0,0,0,6.19-2.273v1.768h4.9V837.5Zm-5.79,15.754a5.947,5.947,0,0,1-5.53-3.644,6.113,6.113,0,0,1-.36-3.461,5.957,5.957,0,0,1,4.65-4.733,5.948,5.948,0,0,1,7.1,5.864,5.751,5.751,0,0,1-.43,2.28,5.829,5.829,0,0,1-1.27,1.938,5.838,5.838,0,0,1-4.17,1.747Z" fill="#5fb709"/>
  </g>
</svg>
