<svg xmlns="http://www.w3.org/2000/svg" width="66.44" height="66.149" viewBox="0 0 66.44 66.149">
  <g id="wallet" transform="translate(-1072.4 -1049.001)">
    <path id="Path_663" data-name="Path 663" d="M1121.7,1115.15h-35.4a13.9,13.9,0,0,1-13.9-13.91v-20.75a13.9,13.9,0,0,1,13.9-13.91h35.4a13.9,13.9,0,0,1,13.9,13.91v4.44a2.324,2.324,0,0,1-2.31,2.31h-6.23a3.779,3.779,0,0,0-2.77,1.14l-.03.03a3.867,3.867,0,0,0-1.17,3.15,4.29,4.29,0,0,0,4.34,3.67h5.86a2.324,2.324,0,0,1,2.31,2.31v3.67A13.911,13.911,0,0,1,1121.7,1115.15Zm-35.4-43.94a9.287,9.287,0,0,0-9.28,9.28v20.75a9.287,9.287,0,0,0,9.28,9.28h35.4a9.287,9.287,0,0,0,9.28-9.28v-1.36h-3.55a8.875,8.875,0,0,1-8.97-7.89,8.669,8.669,0,0,1,8.6-9.37h3.92v-2.13a9.287,9.287,0,0,0-9.28-9.28Z" fill="#f90"/>
    <path id="Path_664" data-name="Path 664" d="M1074.71,1085.58a2.326,2.326,0,0,1-2.31-2.32v-14.09a11.188,11.188,0,0,1,7.18-10.39l24.48-9.25a8.161,8.161,0,0,1,11.04,7.65v11.72a2.31,2.31,0,0,1-4.62,0v-11.72a3.524,3.524,0,0,0-1.55-2.93,3.427,3.427,0,0,0-3.26-.4l-24.49,9.25a6.559,6.559,0,0,0-4.19,6.07v14.09A2.269,2.269,0,0,1,1074.71,1085.58Z" fill="#f90"/>
    <path id="Path_665" data-name="Path 665" d="M1127.43,1099.88a8.875,8.875,0,0,1-8.97-7.89,8.5,8.5,0,0,1,2.53-6.88,8.408,8.408,0,0,1,6.04-2.49h6.42a5.462,5.462,0,0,1,5.39,5.45v6.36a5.445,5.445,0,0,1-5.3,5.45Zm5.96-12.64h-6.33a3.8,3.8,0,0,0-2.77,1.14,3.889,3.889,0,0,0-1.2,3.21,4.29,4.29,0,0,0,4.34,3.67h6.05a.818.818,0,0,0,.77-.83v-6.36A.854.854,0,0,0,1133.39,1087.24Z" fill="#f90"/>
    <path id="Path_666" data-name="Path 666" d="M1110.17,1084.31h-21.59a2.31,2.31,0,0,1,0-4.62h21.59a2.31,2.31,0,0,1,0,4.62Z" fill="#f90"/>
  </g>
</svg>
